<?xml version="1.0" encoding="utf-8" standalone="no"?>
<!DOCTYPE svg PUBLIC "-//W3C//DTD SVG 1.1//EN"
  "http://www.w3.org/Graphics/SVG/1.1/DTD/svg11.dtd">
<svg xmlns:xlink="http://www.w3.org/1999/xlink" width="576pt" height="576pt" viewBox="0 0 576 576" xmlns="http://www.w3.org/2000/svg" version="1.1">
 <metadata>
  <rdf:RDF xmlns:dc="http://purl.org/dc/elements/1.1/" xmlns:cc="http://creativecommons.org/ns#" xmlns:rdf="http://www.w3.org/1999/02/22-rdf-syntax-ns#">
   <cc:Work>
    <dc:type rdf:resource="http://purl.org/dc/dcmitype/StillImage"/>
    <dc:date>2025-11-05T11:45:58.704470</dc:date>
    <dc:format>image/svg+xml</dc:format>
    <dc:creator>
     <cc:Agent>
      <dc:title>Matplotlib v3.10.1, https://matplotlib.org/</dc:title>
     </cc:Agent>
    </dc:creator>
   </cc:Work>
  </rdf:RDF>
 </metadata>
 <defs>
  <style type="text/css">*{stroke-linejoin: round; stroke-linecap: butt}</style>
 </defs>
 <g id="figure_1">
  <g id="patch_1">
   <path d="M 0 576 
L 576 576 
L 576 0 
L 0 0 
z
" style="fill: #ffffff"/>
  </g>
  <g id="axes_1">
   <g id="patch_2">
    <path d="M 79.94 268.27 
L 552.578636 268.27 
L 552.578636 32.64 
L 79.94 32.64 
z
" style="fill: #ffffff"/>
   </g>
   <g id="matplotlib.axis_1">
    <g id="xtick_1">
     <g id="line2d_1">
      <defs>
       <path id="m198ebec162" d="M 0 0 
L 0 3.5 
" style="stroke: #000000; stroke-width: 0.8"/>
      </defs>
      <g>
       <use xlink:href="#m198ebec162" x="134.245702" y="268.27" style="stroke: #000000; stroke-width: 0.8"/>
      </g>
     </g>
    </g>
    <g id="xtick_2">
     <g id="line2d_2">
      <g>
       <use xlink:href="#m198ebec162" x="193.922297" y="268.27" style="stroke: #000000; stroke-width: 0.8"/>
      </g>
     </g>
    </g>
    <g id="xtick_3">
     <g id="line2d_3">
      <g>
       <use xlink:href="#m198ebec162" x="253.598893" y="268.27" style="stroke: #000000; stroke-width: 0.8"/>
      </g>
     </g>
    </g>
    <g id="xtick_4">
     <g id="line2d_4">
      <g>
       <use xlink:href="#m198ebec162" x="313.275488" y="268.27" style="stroke: #000000; stroke-width: 0.8"/>
      </g>
     </g>
    </g>
    <g id="xtick_5">
     <g id="line2d_5">
      <g>
       <use xlink:href="#m198ebec162" x="372.952084" y="268.27" style="stroke: #000000; stroke-width: 0.8"/>
      </g>
     </g>
    </g>
    <g id="xtick_6">
     <g id="line2d_6">
      <g>
       <use xlink:href="#m198ebec162" x="432.628679" y="268.27" style="stroke: #000000; stroke-width: 0.8"/>
      </g>
     </g>
    </g>
    <g id="xtick_7">
     <g id="line2d_7">
      <g>
       <use xlink:href="#m198ebec162" x="492.305275" y="268.27" style="stroke: #000000; stroke-width: 0.8"/>
      </g>
     </g>
    </g>
    <g id="xtick_8">
     <g id="line2d_8">
      <g>
       <use xlink:href="#m198ebec162" x="551.98187" y="268.27" style="stroke: #000000; stroke-width: 0.8"/>
      </g>
     </g>
    </g>
   </g>
   <g id="matplotlib.axis_2">
    <g id="ytick_1">
     <g id="line2d_9">
      <defs>
       <path id="m647c6b50e6" d="M 0 0 
L -3.5 0 
" style="stroke: #000000; stroke-width: 0.8"/>
      </defs>
      <g>
       <use xlink:href="#m647c6b50e6" x="79.94" y="252.568532" style="stroke: #000000; stroke-width: 0.8"/>
      </g>
     </g>
     <g id="text_1">
      <!-- 0.2 -->
      <g transform="translate(50.675625 257.887439) scale(0.14 -0.14)">
       <defs>
        <path id="DejaVuSans-30" d="M 2034 4250 
Q 1547 4250 1301 3770 
Q 1056 3291 1056 2328 
Q 1056 1369 1301 889 
Q 1547 409 2034 409 
Q 2525 409 2770 889 
Q 3016 1369 3016 2328 
Q 3016 3291 2770 3770 
Q 2525 4250 2034 4250 
z
M 2034 4750 
Q 2819 4750 3233 4129 
Q 3647 3509 3647 2328 
Q 3647 1150 3233 529 
Q 2819 -91 2034 -91 
Q 1250 -91 836 529 
Q 422 1150 422 2328 
Q 422 3509 836 4129 
Q 1250 4750 2034 4750 
z
" transform="scale(0.015625)"/>
        <path id="DejaVuSans-2e" d="M 684 794 
L 1344 794 
L 1344 0 
L 684 0 
L 684 794 
z
" transform="scale(0.015625)"/>
        <path id="DejaVuSans-32" d="M 1228 531 
L 3431 531 
L 3431 0 
L 469 0 
L 469 531 
Q 828 903 1448 1529 
Q 2069 2156 2228 2338 
Q 2531 2678 2651 2914 
Q 2772 3150 2772 3378 
Q 2772 3750 2511 3984 
Q 2250 4219 1831 4219 
Q 1534 4219 1204 4116 
Q 875 4013 500 3803 
L 500 4441 
Q 881 4594 1212 4672 
Q 1544 4750 1819 4750 
Q 2544 4750 2975 4387 
Q 3406 4025 3406 3419 
Q 3406 3131 3298 2873 
Q 3191 2616 2906 2266 
Q 2828 2175 2409 1742 
Q 1991 1309 1228 531 
z
" transform="scale(0.015625)"/>
       </defs>
       <use xlink:href="#DejaVuSans-30"/>
       <use xlink:href="#DejaVuSans-2e" transform="translate(63.623047 0)"/>
       <use xlink:href="#DejaVuSans-32" transform="translate(95.410156 0)"/>
      </g>
     </g>
    </g>
    <g id="ytick_2">
     <g id="line2d_10">
      <g>
       <use xlink:href="#m647c6b50e6" x="79.94" y="222.622453" style="stroke: #000000; stroke-width: 0.8"/>
      </g>
     </g>
     <g id="text_2">
      <!-- 0.4 -->
      <g transform="translate(50.675625 227.941359) scale(0.14 -0.14)">
       <defs>
        <path id="DejaVuSans-34" d="M 2419 4116 
L 825 1625 
L 2419 1625 
L 2419 4116 
z
M 2253 4666 
L 3047 4666 
L 3047 1625 
L 3713 1625 
L 3713 1100 
L 3047 1100 
L 3047 0 
L 2419 0 
L 2419 1100 
L 313 1100 
L 313 1709 
L 2253 4666 
z
" transform="scale(0.015625)"/>
       </defs>
       <use xlink:href="#DejaVuSans-30"/>
       <use xlink:href="#DejaVuSans-2e" transform="translate(63.623047 0)"/>
       <use xlink:href="#DejaVuSans-34" transform="translate(95.410156 0)"/>
      </g>
     </g>
    </g>
    <g id="ytick_3">
     <g id="line2d_11">
      <g>
       <use xlink:href="#m647c6b50e6" x="79.94" y="192.676374" style="stroke: #000000; stroke-width: 0.8"/>
      </g>
     </g>
     <g id="text_3">
      <!-- 0.6 -->
      <g transform="translate(50.675625 197.99528) scale(0.14 -0.14)">
       <defs>
        <path id="DejaVuSans-36" d="M 2113 2584 
Q 1688 2584 1439 2293 
Q 1191 2003 1191 1497 
Q 1191 994 1439 701 
Q 1688 409 2113 409 
Q 2538 409 2786 701 
Q 3034 994 3034 1497 
Q 3034 2003 2786 2293 
Q 2538 2584 2113 2584 
z
M 3366 4563 
L 3366 3988 
Q 3128 4100 2886 4159 
Q 2644 4219 2406 4219 
Q 1781 4219 1451 3797 
Q 1122 3375 1075 2522 
Q 1259 2794 1537 2939 
Q 1816 3084 2150 3084 
Q 2853 3084 3261 2657 
Q 3669 2231 3669 1497 
Q 3669 778 3244 343 
Q 2819 -91 2113 -91 
Q 1303 -91 875 529 
Q 447 1150 447 2328 
Q 447 3434 972 4092 
Q 1497 4750 2381 4750 
Q 2619 4750 2861 4703 
Q 3103 4656 3366 4563 
z
" transform="scale(0.015625)"/>
       </defs>
       <use xlink:href="#DejaVuSans-30"/>
       <use xlink:href="#DejaVuSans-2e" transform="translate(63.623047 0)"/>
       <use xlink:href="#DejaVuSans-36" transform="translate(95.410156 0)"/>
      </g>
     </g>
    </g>
    <g id="ytick_4">
     <g id="line2d_12">
      <g>
       <use xlink:href="#m647c6b50e6" x="79.94" y="162.730295" style="stroke: #000000; stroke-width: 0.8"/>
      </g>
     </g>
     <g id="text_4">
      <!-- 0.8 -->
      <g transform="translate(50.675625 168.049201) scale(0.14 -0.14)">
       <defs>
        <path id="DejaVuSans-38" d="M 2034 2216 
Q 1584 2216 1326 1975 
Q 1069 1734 1069 1313 
Q 1069 891 1326 650 
Q 1584 409 2034 409 
Q 2484 409 2743 651 
Q 3003 894 3003 1313 
Q 3003 1734 2745 1975 
Q 2488 2216 2034 2216 
z
M 1403 2484 
Q 997 2584 770 2862 
Q 544 3141 544 3541 
Q 544 4100 942 4425 
Q 1341 4750 2034 4750 
Q 2731 4750 3128 4425 
Q 3525 4100 3525 3541 
Q 3525 3141 3298 2862 
Q 3072 2584 2669 2484 
Q 3125 2378 3379 2068 
Q 3634 1759 3634 1313 
Q 3634 634 3220 271 
Q 2806 -91 2034 -91 
Q 1263 -91 848 271 
Q 434 634 434 1313 
Q 434 1759 690 2068 
Q 947 2378 1403 2484 
z
M 1172 3481 
Q 1172 3119 1398 2916 
Q 1625 2713 2034 2713 
Q 2441 2713 2670 2916 
Q 2900 3119 2900 3481 
Q 2900 3844 2670 4047 
Q 2441 4250 2034 4250 
Q 1625 4250 1398 4047 
Q 1172 3844 1172 3481 
z
" transform="scale(0.015625)"/>
       </defs>
       <use xlink:href="#DejaVuSans-30"/>
       <use xlink:href="#DejaVuSans-2e" transform="translate(63.623047 0)"/>
       <use xlink:href="#DejaVuSans-38" transform="translate(95.410156 0)"/>
      </g>
     </g>
    </g>
    <g id="ytick_5">
     <g id="line2d_13">
      <g>
       <use xlink:href="#m647c6b50e6" x="79.94" y="132.784216" style="stroke: #000000; stroke-width: 0.8"/>
      </g>
     </g>
     <g id="text_5">
      <!-- 1.0 -->
      <g transform="translate(50.675625 138.103122) scale(0.14 -0.14)">
       <defs>
        <path id="DejaVuSans-31" d="M 794 531 
L 1825 531 
L 1825 4091 
L 703 3866 
L 703 4441 
L 1819 4666 
L 2450 4666 
L 2450 531 
L 3481 531 
L 3481 0 
L 794 0 
L 794 531 
z
" transform="scale(0.015625)"/>
       </defs>
       <use xlink:href="#DejaVuSans-31"/>
       <use xlink:href="#DejaVuSans-2e" transform="translate(63.623047 0)"/>
       <use xlink:href="#DejaVuSans-30" transform="translate(95.410156 0)"/>
      </g>
     </g>
    </g>
    <g id="ytick_6">
     <g id="line2d_14">
      <g>
       <use xlink:href="#m647c6b50e6" x="79.94" y="102.838137" style="stroke: #000000; stroke-width: 0.8"/>
      </g>
     </g>
     <g id="text_6">
      <!-- 1.2 -->
      <g transform="translate(50.675625 108.157043) scale(0.14 -0.14)">
       <use xlink:href="#DejaVuSans-31"/>
       <use xlink:href="#DejaVuSans-2e" transform="translate(63.623047 0)"/>
       <use xlink:href="#DejaVuSans-32" transform="translate(95.410156 0)"/>
      </g>
     </g>
    </g>
    <g id="ytick_7">
     <g id="line2d_15">
      <g>
       <use xlink:href="#m647c6b50e6" x="79.94" y="72.892057" style="stroke: #000000; stroke-width: 0.8"/>
      </g>
     </g>
     <g id="text_7">
      <!-- 1.4 -->
      <g transform="translate(50.675625 78.210964) scale(0.14 -0.14)">
       <use xlink:href="#DejaVuSans-31"/>
       <use xlink:href="#DejaVuSans-2e" transform="translate(63.623047 0)"/>
       <use xlink:href="#DejaVuSans-34" transform="translate(95.410156 0)"/>
      </g>
     </g>
    </g>
    <g id="ytick_8">
     <g id="line2d_16">
      <g>
       <use xlink:href="#m647c6b50e6" x="79.94" y="42.945978" style="stroke: #000000; stroke-width: 0.8"/>
      </g>
     </g>
     <g id="text_8">
      <!-- 1.6 -->
      <g transform="translate(50.675625 48.264885) scale(0.14 -0.14)">
       <use xlink:href="#DejaVuSans-31"/>
       <use xlink:href="#DejaVuSans-2e" transform="translate(63.623047 0)"/>
       <use xlink:href="#DejaVuSans-36" transform="translate(95.410156 0)"/>
      </g>
     </g>
    </g>
    <g id="text_9">
     <!-- Expected Value -->
     <g transform="translate(43.764063 204.565) rotate(-90) scale(0.14 -0.14)">
      <defs>
       <path id="DejaVuSans-45" d="M 628 4666 
L 3578 4666 
L 3578 4134 
L 1259 4134 
L 1259 2753 
L 3481 2753 
L 3481 2222 
L 1259 2222 
L 1259 531 
L 3634 531 
L 3634 0 
L 628 0 
L 628 4666 
z
" transform="scale(0.015625)"/>
       <path id="DejaVuSans-78" d="M 3513 3500 
L 2247 1797 
L 3578 0 
L 2900 0 
L 1881 1375 
L 863 0 
L 184 0 
L 1544 1831 
L 300 3500 
L 978 3500 
L 1906 2253 
L 2834 3500 
L 3513 3500 
z
" transform="scale(0.015625)"/>
       <path id="DejaVuSans-70" d="M 1159 525 
L 1159 -1331 
L 581 -1331 
L 581 3500 
L 1159 3500 
L 1159 2969 
Q 1341 3281 1617 3432 
Q 1894 3584 2278 3584 
Q 2916 3584 3314 3078 
Q 3713 2572 3713 1747 
Q 3713 922 3314 415 
Q 2916 -91 2278 -91 
Q 1894 -91 1617 61 
Q 1341 213 1159 525 
z
M 3116 1747 
Q 3116 2381 2855 2742 
Q 2594 3103 2138 3103 
Q 1681 3103 1420 2742 
Q 1159 2381 1159 1747 
Q 1159 1113 1420 752 
Q 1681 391 2138 391 
Q 2594 391 2855 752 
Q 3116 1113 3116 1747 
z
" transform="scale(0.015625)"/>
       <path id="DejaVuSans-65" d="M 3597 1894 
L 3597 1613 
L 953 1613 
Q 991 1019 1311 708 
Q 1631 397 2203 397 
Q 2534 397 2845 478 
Q 3156 559 3463 722 
L 3463 178 
Q 3153 47 2828 -22 
Q 2503 -91 2169 -91 
Q 1331 -91 842 396 
Q 353 884 353 1716 
Q 353 2575 817 3079 
Q 1281 3584 2069 3584 
Q 2775 3584 3186 3129 
Q 3597 2675 3597 1894 
z
M 3022 2063 
Q 3016 2534 2758 2815 
Q 2500 3097 2075 3097 
Q 1594 3097 1305 2825 
Q 1016 2553 972 2059 
L 3022 2063 
z
" transform="scale(0.015625)"/>
       <path id="DejaVuSans-63" d="M 3122 3366 
L 3122 2828 
Q 2878 2963 2633 3030 
Q 2388 3097 2138 3097 
Q 1578 3097 1268 2742 
Q 959 2388 959 1747 
Q 959 1106 1268 751 
Q 1578 397 2138 397 
Q 2388 397 2633 464 
Q 2878 531 3122 666 
L 3122 134 
Q 2881 22 2623 -34 
Q 2366 -91 2075 -91 
Q 1284 -91 818 406 
Q 353 903 353 1747 
Q 353 2603 823 3093 
Q 1294 3584 2113 3584 
Q 2378 3584 2631 3529 
Q 2884 3475 3122 3366 
z
" transform="scale(0.015625)"/>
       <path id="DejaVuSans-74" d="M 1172 4494 
L 1172 3500 
L 2356 3500 
L 2356 3053 
L 1172 3053 
L 1172 1153 
Q 1172 725 1289 603 
Q 1406 481 1766 481 
L 2356 481 
L 2356 0 
L 1766 0 
Q 1100 0 847 248 
Q 594 497 594 1153 
L 594 3053 
L 172 3053 
L 172 3500 
L 594 3500 
L 594 4494 
L 1172 4494 
z
" transform="scale(0.015625)"/>
       <path id="DejaVuSans-64" d="M 2906 2969 
L 2906 4863 
L 3481 4863 
L 3481 0 
L 2906 0 
L 2906 525 
Q 2725 213 2448 61 
Q 2172 -91 1784 -91 
Q 1150 -91 751 415 
Q 353 922 353 1747 
Q 353 2572 751 3078 
Q 1150 3584 1784 3584 
Q 2172 3584 2448 3432 
Q 2725 3281 2906 2969 
z
M 947 1747 
Q 947 1113 1208 752 
Q 1469 391 1925 391 
Q 2381 391 2643 752 
Q 2906 1113 2906 1747 
Q 2906 2381 2643 2742 
Q 2381 3103 1925 3103 
Q 1469 3103 1208 2742 
Q 947 2381 947 1747 
z
" transform="scale(0.015625)"/>
       <path id="DejaVuSans-20" transform="scale(0.015625)"/>
       <path id="DejaVuSans-56" d="M 1831 0 
L 50 4666 
L 709 4666 
L 2188 738 
L 3669 4666 
L 4325 4666 
L 2547 0 
L 1831 0 
z
" transform="scale(0.015625)"/>
       <path id="DejaVuSans-61" d="M 2194 1759 
Q 1497 1759 1228 1600 
Q 959 1441 959 1056 
Q 959 750 1161 570 
Q 1363 391 1709 391 
Q 2188 391 2477 730 
Q 2766 1069 2766 1631 
L 2766 1759 
L 2194 1759 
z
M 3341 1997 
L 3341 0 
L 2766 0 
L 2766 531 
Q 2569 213 2275 61 
Q 1981 -91 1556 -91 
Q 1019 -91 701 211 
Q 384 513 384 1019 
Q 384 1609 779 1909 
Q 1175 2209 1959 2209 
L 2766 2209 
L 2766 2266 
Q 2766 2663 2505 2880 
Q 2244 3097 1772 3097 
Q 1472 3097 1187 3025 
Q 903 2953 641 2809 
L 641 3341 
Q 956 3463 1253 3523 
Q 1550 3584 1831 3584 
Q 2591 3584 2966 3190 
Q 3341 2797 3341 1997 
z
" transform="scale(0.015625)"/>
       <path id="DejaVuSans-6c" d="M 603 4863 
L 1178 4863 
L 1178 0 
L 603 0 
L 603 4863 
z
" transform="scale(0.015625)"/>
       <path id="DejaVuSans-75" d="M 544 1381 
L 544 3500 
L 1119 3500 
L 1119 1403 
Q 1119 906 1312 657 
Q 1506 409 1894 409 
Q 2359 409 2629 706 
Q 2900 1003 2900 1516 
L 2900 3500 
L 3475 3500 
L 3475 0 
L 2900 0 
L 2900 538 
Q 2691 219 2414 64 
Q 2138 -91 1772 -91 
Q 1169 -91 856 284 
Q 544 659 544 1381 
z
M 1991 3584 
L 1991 3584 
z
" transform="scale(0.015625)"/>
      </defs>
      <use xlink:href="#DejaVuSans-45"/>
      <use xlink:href="#DejaVuSans-78" transform="translate(63.183594 0)"/>
      <use xlink:href="#DejaVuSans-70" transform="translate(122.363281 0)"/>
      <use xlink:href="#DejaVuSans-65" transform="translate(185.839844 0)"/>
      <use xlink:href="#DejaVuSans-63" transform="translate(247.363281 0)"/>
      <use xlink:href="#DejaVuSans-74" transform="translate(302.34375 0)"/>
      <use xlink:href="#DejaVuSans-65" transform="translate(341.552734 0)"/>
      <use xlink:href="#DejaVuSans-64" transform="translate(403.076172 0)"/>
      <use xlink:href="#DejaVuSans-20" transform="translate(466.552734 0)"/>
      <use xlink:href="#DejaVuSans-56" transform="translate(498.339844 0)"/>
      <use xlink:href="#DejaVuSans-61" transform="translate(558.998047 0)"/>
      <use xlink:href="#DejaVuSans-6c" transform="translate(620.277344 0)"/>
      <use xlink:href="#DejaVuSans-75" transform="translate(648.060547 0)"/>
      <use xlink:href="#DejaVuSans-65" transform="translate(711.439453 0)"/>
     </g>
    </g>
   </g>
   <g id="LineCollection_1">
    <path d="M 109.778298 147.240113 
L 109.778298 43.350455 
" clip-path="url(#p18b52354a7)" style="fill: none; stroke: #ffa500; stroke-width: 1.5"/>
    <path d="M 127.681276 150.700873 
L 127.681276 52.462958 
" clip-path="url(#p18b52354a7)" style="fill: none; stroke: #ffa500; stroke-width: 1.5"/>
    <path d="M 145.584255 162.204087 
L 145.584255 84.632507 
" clip-path="url(#p18b52354a7)" style="fill: none; stroke: #ffa500; stroke-width: 1.5"/>
    <path d="M 163.487234 181.560503 
L 163.487234 132.830389 
" clip-path="url(#p18b52354a7)" style="fill: none; stroke: #ffa500; stroke-width: 1.5"/>
    <path d="M 181.390212 175.087143 
L 181.390212 140.040544 
" clip-path="url(#p18b52354a7)" style="fill: none; stroke: #ffa500; stroke-width: 1.5"/>
    <path d="M 199.293191 164.253504 
L 199.293191 146.711465 
" clip-path="url(#p18b52354a7)" style="fill: none; stroke: #ffa500; stroke-width: 1.5"/>
    <path d="M 217.19617 166.851208 
L 217.19617 143.651202 
" clip-path="url(#p18b52354a7)" style="fill: none; stroke: #ffa500; stroke-width: 1.5"/>
    <path d="M 235.099148 167.116688 
L 235.099148 140.243702 
" clip-path="url(#p18b52354a7)" style="fill: none; stroke: #ffa500; stroke-width: 1.5"/>
    <path d="M 253.002127 166.525217 
L 253.002127 136.439932 
" clip-path="url(#p18b52354a7)" style="fill: none; stroke: #ffa500; stroke-width: 1.5"/>
    <path d="M 270.905106 167.145696 
L 270.905106 129.157545 
" clip-path="url(#p18b52354a7)" style="fill: none; stroke: #ffa500; stroke-width: 1.5"/>
    <path d="M 288.808084 179.817747 
L 288.808084 141.766075 
" clip-path="url(#p18b52354a7)" style="fill: none; stroke: #ffa500; stroke-width: 1.5"/>
    <path d="M 306.711063 171.238922 
L 306.711063 137.341697 
" clip-path="url(#p18b52354a7)" style="fill: none; stroke: #ffa500; stroke-width: 1.5"/>
    <path d="M 324.614042 183.08909 
L 324.614042 125.937454 
" clip-path="url(#p18b52354a7)" style="fill: none; stroke: #ffa500; stroke-width: 1.5"/>
    <path d="M 342.51702 178.468722 
L 342.51702 114.403763 
" clip-path="url(#p18b52354a7)" style="fill: none; stroke: #ffa500; stroke-width: 1.5"/>
    <path d="M 360.419999 184.820529 
L 360.419999 112.197299 
" clip-path="url(#p18b52354a7)" style="fill: none; stroke: #ffa500; stroke-width: 1.5"/>
    <path d="M 378.322978 177.705499 
L 378.322978 104.614048 
" clip-path="url(#p18b52354a7)" style="fill: none; stroke: #ffa500; stroke-width: 1.5"/>
    <path d="M 396.225956 181.529209 
L 396.225956 111.820607 
" clip-path="url(#p18b52354a7)" style="fill: none; stroke: #ffa500; stroke-width: 1.5"/>
    <path d="M 414.128935 139.292984 
L 414.128935 101.582817 
" clip-path="url(#p18b52354a7)" style="fill: none; stroke: #ffa500; stroke-width: 1.5"/>
    <path d="M 432.031913 128.902088 
L 432.031913 107.353691 
" clip-path="url(#p18b52354a7)" style="fill: none; stroke: #ffa500; stroke-width: 1.5"/>
    <path d="M 449.934892 148.750907 
L 449.934892 109.786909 
" clip-path="url(#p18b52354a7)" style="fill: none; stroke: #ffa500; stroke-width: 1.5"/>
    <path d="M 467.837871 159.485956 
L 467.837871 107.061817 
" clip-path="url(#p18b52354a7)" style="fill: none; stroke: #ffa500; stroke-width: 1.5"/>
    <path d="M 485.740849 186.393151 
L 485.740849 90.173145 
" clip-path="url(#p18b52354a7)" style="fill: none; stroke: #ffa500; stroke-width: 1.5"/>
    <path d="M 503.643828 222.854964 
L 503.643828 142.25587 
" clip-path="url(#p18b52354a7)" style="fill: none; stroke: #ffa500; stroke-width: 1.5"/>
    <path clip-path="url(#p18b52354a7)" style="fill: none; stroke: #ffa500; stroke-width: 1.5"/>
   </g>
   <g id="LineCollection_2">
    <path d="M 110.375064 147.240113 
L 110.375064 43.350455 
" clip-path="url(#p18b52354a7)" style="fill: none; stroke: #0000ff; stroke-opacity: 0.3; stroke-width: 1.5"/>
    <path d="M 128.278042 150.700873 
L 128.278042 52.462958 
" clip-path="url(#p18b52354a7)" style="fill: none; stroke: #0000ff; stroke-opacity: 0.3; stroke-width: 1.5"/>
    <path d="M 146.181021 162.204087 
L 146.181021 84.632507 
" clip-path="url(#p18b52354a7)" style="fill: none; stroke: #0000ff; stroke-opacity: 0.3; stroke-width: 1.5"/>
    <path d="M 164.084 181.560503 
L 164.084 132.830389 
" clip-path="url(#p18b52354a7)" style="fill: none; stroke: #0000ff; stroke-opacity: 0.3; stroke-width: 1.5"/>
    <path d="M 181.986978 175.087143 
L 181.986978 140.040544 
" clip-path="url(#p18b52354a7)" style="fill: none; stroke: #0000ff; stroke-opacity: 0.3; stroke-width: 1.5"/>
    <path d="M 199.889957 164.253504 
L 199.889957 146.711465 
" clip-path="url(#p18b52354a7)" style="fill: none; stroke: #0000ff; stroke-opacity: 0.3; stroke-width: 1.5"/>
    <path d="M 217.792936 166.851208 
L 217.792936 143.651202 
" clip-path="url(#p18b52354a7)" style="fill: none; stroke: #0000ff; stroke-opacity: 0.3; stroke-width: 1.5"/>
    <path d="M 235.695914 167.116688 
L 235.695914 140.243702 
" clip-path="url(#p18b52354a7)" style="fill: none; stroke: #0000ff; stroke-opacity: 0.3; stroke-width: 1.5"/>
    <path d="M 253.598893 166.525217 
L 253.598893 136.439932 
" clip-path="url(#p18b52354a7)" style="fill: none; stroke: #0000ff; stroke-opacity: 0.3; stroke-width: 1.5"/>
    <path d="M 271.501872 167.145696 
L 271.501872 129.157545 
" clip-path="url(#p18b52354a7)" style="fill: none; stroke: #0000ff; stroke-opacity: 0.3; stroke-width: 1.5"/>
    <path d="M 289.40485 179.817747 
L 289.40485 141.766075 
" clip-path="url(#p18b52354a7)" style="fill: none; stroke: #0000ff; stroke-opacity: 0.3; stroke-width: 1.5"/>
    <path d="M 307.307829 171.238922 
L 307.307829 137.341697 
" clip-path="url(#p18b52354a7)" style="fill: none; stroke: #0000ff; stroke-opacity: 0.3; stroke-width: 1.5"/>
    <path d="M 325.210808 184.727305 
L 325.210808 138.173165 
" clip-path="url(#p18b52354a7)" style="fill: none; stroke: #0000ff; stroke-opacity: 0.3; stroke-width: 1.5"/>
    <path d="M 343.113786 182.876161 
L 343.113786 141.295087 
" clip-path="url(#p18b52354a7)" style="fill: none; stroke: #0000ff; stroke-opacity: 0.3; stroke-width: 1.5"/>
    <path d="M 361.016765 194.406842 
L 361.016765 139.991903 
" clip-path="url(#p18b52354a7)" style="fill: none; stroke: #0000ff; stroke-opacity: 0.3; stroke-width: 1.5"/>
    <path d="M 378.919743 188.72538 
L 378.919743 144.792815 
" clip-path="url(#p18b52354a7)" style="fill: none; stroke: #0000ff; stroke-opacity: 0.3; stroke-width: 1.5"/>
    <path d="M 396.822722 203.498139 
L 396.822722 157.837749 
" clip-path="url(#p18b52354a7)" style="fill: none; stroke: #0000ff; stroke-opacity: 0.3; stroke-width: 1.5"/>
    <path d="M 414.725701 187.033527 
L 414.725701 161.893415 
" clip-path="url(#p18b52354a7)" style="fill: none; stroke: #0000ff; stroke-opacity: 0.3; stroke-width: 1.5"/>
    <path d="M 432.628679 180.106263 
L 432.628679 165.740664 
" clip-path="url(#p18b52354a7)" style="fill: none; stroke: #0000ff; stroke-opacity: 0.3; stroke-width: 1.5"/>
    <path d="M 450.531658 193.338809 
L 450.531658 167.36281 
" clip-path="url(#p18b52354a7)" style="fill: none; stroke: #0000ff; stroke-opacity: 0.3; stroke-width: 1.5"/>
    <path d="M 468.434637 200.495507 
L 468.434637 165.546082 
" clip-path="url(#p18b52354a7)" style="fill: none; stroke: #0000ff; stroke-opacity: 0.3; stroke-width: 1.5"/>
    <path d="M 486.337615 218.433638 
L 486.337615 154.286967 
" clip-path="url(#p18b52354a7)" style="fill: none; stroke: #0000ff; stroke-opacity: 0.3; stroke-width: 1.5"/>
    <path d="M 504.240594 242.741513 
L 504.240594 189.008784 
" clip-path="url(#p18b52354a7)" style="fill: none; stroke: #0000ff; stroke-opacity: 0.3; stroke-width: 1.5"/>
    <path clip-path="url(#p18b52354a7)" style="fill: none; stroke: #0000ff; stroke-opacity: 0.3; stroke-width: 1.5"/>
   </g>
   <g id="line2d_17">
    <defs>
     <path id="m93350b7567" d="M 0 3 
C 0.795609 3 1.55874 2.683901 2.12132 2.12132 
C 2.683901 1.55874 3 0.795609 3 0 
C 3 -0.795609 2.683901 -1.55874 2.12132 -2.12132 
C 1.55874 -2.683901 0.795609 -3 0 -3 
C -0.795609 -3 -1.55874 -2.683901 -2.12132 -2.12132 
C -2.683901 -1.55874 -3 -0.795609 -3 0 
C -3 0.795609 -2.683901 1.55874 -2.12132 2.12132 
C -1.55874 2.683901 -0.795609 3 0 3 
z
" style="stroke: #ffa500"/>
    </defs>
    <g clip-path="url(#p18b52354a7)">
     <use xlink:href="#m93350b7567" x="109.778298" y="95.295284" style="fill: #ffa500; stroke: #ffa500"/>
     <use xlink:href="#m93350b7567" x="127.681276" y="101.581916" style="fill: #ffa500; stroke: #ffa500"/>
     <use xlink:href="#m93350b7567" x="145.584255" y="123.418297" style="fill: #ffa500; stroke: #ffa500"/>
     <use xlink:href="#m93350b7567" x="163.487234" y="157.195446" style="fill: #ffa500; stroke: #ffa500"/>
     <use xlink:href="#m93350b7567" x="181.390212" y="157.563843" style="fill: #ffa500; stroke: #ffa500"/>
     <use xlink:href="#m93350b7567" x="199.293191" y="155.482485" style="fill: #ffa500; stroke: #ffa500"/>
     <use xlink:href="#m93350b7567" x="217.19617" y="155.251205" style="fill: #ffa500; stroke: #ffa500"/>
     <use xlink:href="#m93350b7567" x="235.099148" y="153.680195" style="fill: #ffa500; stroke: #ffa500"/>
     <use xlink:href="#m93350b7567" x="253.002127" y="151.482574" style="fill: #ffa500; stroke: #ffa500"/>
     <use xlink:href="#m93350b7567" x="270.905106" y="148.15162" style="fill: #ffa500; stroke: #ffa500"/>
     <use xlink:href="#m93350b7567" x="288.808084" y="160.791911" style="fill: #ffa500; stroke: #ffa500"/>
     <use xlink:href="#m93350b7567" x="306.711063" y="154.29031" style="fill: #ffa500; stroke: #ffa500"/>
     <use xlink:href="#m93350b7567" x="324.614042" y="154.513272" style="fill: #ffa500; stroke: #ffa500"/>
     <use xlink:href="#m93350b7567" x="342.51702" y="146.436242" style="fill: #ffa500; stroke: #ffa500"/>
     <use xlink:href="#m93350b7567" x="360.419999" y="148.508914" style="fill: #ffa500; stroke: #ffa500"/>
     <use xlink:href="#m93350b7567" x="378.322978" y="141.159773" style="fill: #ffa500; stroke: #ffa500"/>
     <use xlink:href="#m93350b7567" x="396.225956" y="146.674908" style="fill: #ffa500; stroke: #ffa500"/>
     <use xlink:href="#m93350b7567" x="414.128935" y="120.437901" style="fill: #ffa500; stroke: #ffa500"/>
     <use xlink:href="#m93350b7567" x="432.031913" y="118.12789" style="fill: #ffa500; stroke: #ffa500"/>
     <use xlink:href="#m93350b7567" x="449.934892" y="129.268908" style="fill: #ffa500; stroke: #ffa500"/>
     <use xlink:href="#m93350b7567" x="467.837871" y="133.273886" style="fill: #ffa500; stroke: #ffa500"/>
     <use xlink:href="#m93350b7567" x="485.740849" y="138.283148" style="fill: #ffa500; stroke: #ffa500"/>
     <use xlink:href="#m93350b7567" x="503.643828" y="182.555417" style="fill: #ffa500; stroke: #ffa500"/>
     <use xlink:href="#m93350b7567" x="521.546807" y="245.082012" style="fill: #ffa500; stroke: #ffa500"/>
    </g>
   </g>
   <g id="line2d_18">
    <defs>
     <path id="m9f864f73d9" d="M 0 3 
C 0.795609 3 1.55874 2.683901 2.12132 2.12132 
C 2.683901 1.55874 3 0.795609 3 0 
C 3 -0.795609 2.683901 -1.55874 2.12132 -2.12132 
C 1.55874 -2.683901 0.795609 -3 0 -3 
C -0.795609 -3 -1.55874 -2.683901 -2.12132 -2.12132 
C -2.683901 -1.55874 -3 -0.795609 -3 0 
C -3 0.795609 -2.683901 1.55874 -2.12132 2.12132 
C -1.55874 2.683901 -0.795609 3 0 3 
z
" style="stroke: #0000ff; stroke-opacity: 0.3"/>
    </defs>
    <g clip-path="url(#p18b52354a7)">
     <use xlink:href="#m9f864f73d9" x="110.375064" y="95.295284" style="fill: #0000ff; fill-opacity: 0.3; stroke: #0000ff; stroke-opacity: 0.3"/>
     <use xlink:href="#m9f864f73d9" x="128.278042" y="101.581916" style="fill: #0000ff; fill-opacity: 0.3; stroke: #0000ff; stroke-opacity: 0.3"/>
     <use xlink:href="#m9f864f73d9" x="146.181021" y="123.418297" style="fill: #0000ff; fill-opacity: 0.3; stroke: #0000ff; stroke-opacity: 0.3"/>
     <use xlink:href="#m9f864f73d9" x="164.084" y="157.195446" style="fill: #0000ff; fill-opacity: 0.3; stroke: #0000ff; stroke-opacity: 0.3"/>
     <use xlink:href="#m9f864f73d9" x="181.986978" y="157.563843" style="fill: #0000ff; fill-opacity: 0.3; stroke: #0000ff; stroke-opacity: 0.3"/>
     <use xlink:href="#m9f864f73d9" x="199.889957" y="155.482485" style="fill: #0000ff; fill-opacity: 0.3; stroke: #0000ff; stroke-opacity: 0.3"/>
     <use xlink:href="#m9f864f73d9" x="217.792936" y="155.251205" style="fill: #0000ff; fill-opacity: 0.3; stroke: #0000ff; stroke-opacity: 0.3"/>
     <use xlink:href="#m9f864f73d9" x="235.695914" y="153.680195" style="fill: #0000ff; fill-opacity: 0.3; stroke: #0000ff; stroke-opacity: 0.3"/>
     <use xlink:href="#m9f864f73d9" x="253.598893" y="151.482574" style="fill: #0000ff; fill-opacity: 0.3; stroke: #0000ff; stroke-opacity: 0.3"/>
     <use xlink:href="#m9f864f73d9" x="271.501872" y="148.15162" style="fill: #0000ff; fill-opacity: 0.3; stroke: #0000ff; stroke-opacity: 0.3"/>
     <use xlink:href="#m9f864f73d9" x="289.40485" y="160.791911" style="fill: #0000ff; fill-opacity: 0.3; stroke: #0000ff; stroke-opacity: 0.3"/>
     <use xlink:href="#m9f864f73d9" x="307.307829" y="154.29031" style="fill: #0000ff; fill-opacity: 0.3; stroke: #0000ff; stroke-opacity: 0.3"/>
     <use xlink:href="#m9f864f73d9" x="325.210808" y="161.450235" style="fill: #0000ff; fill-opacity: 0.3; stroke: #0000ff; stroke-opacity: 0.3"/>
     <use xlink:href="#m9f864f73d9" x="343.113786" y="162.085624" style="fill: #0000ff; fill-opacity: 0.3; stroke: #0000ff; stroke-opacity: 0.3"/>
     <use xlink:href="#m9f864f73d9" x="361.016765" y="167.199372" style="fill: #0000ff; fill-opacity: 0.3; stroke: #0000ff; stroke-opacity: 0.3"/>
     <use xlink:href="#m9f864f73d9" x="378.919743" y="166.759098" style="fill: #0000ff; fill-opacity: 0.3; stroke: #0000ff; stroke-opacity: 0.3"/>
     <use xlink:href="#m9f864f73d9" x="396.822722" y="180.667944" style="fill: #0000ff; fill-opacity: 0.3; stroke: #0000ff; stroke-opacity: 0.3"/>
     <use xlink:href="#m9f864f73d9" x="414.725701" y="174.463471" style="fill: #0000ff; fill-opacity: 0.3; stroke: #0000ff; stroke-opacity: 0.3"/>
     <use xlink:href="#m9f864f73d9" x="432.628679" y="172.923464" style="fill: #0000ff; fill-opacity: 0.3; stroke: #0000ff; stroke-opacity: 0.3"/>
     <use xlink:href="#m9f864f73d9" x="450.531658" y="180.350809" style="fill: #0000ff; fill-opacity: 0.3; stroke: #0000ff; stroke-opacity: 0.3"/>
     <use xlink:href="#m9f864f73d9" x="468.434637" y="183.020795" style="fill: #0000ff; fill-opacity: 0.3; stroke: #0000ff; stroke-opacity: 0.3"/>
     <use xlink:href="#m9f864f73d9" x="486.337615" y="186.360303" style="fill: #0000ff; fill-opacity: 0.3; stroke: #0000ff; stroke-opacity: 0.3"/>
     <use xlink:href="#m9f864f73d9" x="504.240594" y="215.875149" style="fill: #0000ff; fill-opacity: 0.3; stroke: #0000ff; stroke-opacity: 0.3"/>
     <use xlink:href="#m9f864f73d9" x="522.143573" y="257.559545" style="fill: #0000ff; fill-opacity: 0.3; stroke: #0000ff; stroke-opacity: 0.3"/>
    </g>
   </g>
   <g id="patch_3">
    <path d="M 79.94 268.27 
L 79.94 32.64 
" style="fill: none; stroke: #000000; stroke-width: 0.8; stroke-linejoin: miter; stroke-linecap: square"/>
   </g>
   <g id="patch_4">
    <path d="M 552.578636 268.27 
L 552.578636 32.64 
" style="fill: none; stroke: #000000; stroke-width: 0.8; stroke-linejoin: miter; stroke-linecap: square"/>
   </g>
   <g id="patch_5">
    <path d="M 79.94 268.27 
L 552.578636 268.27 
" style="fill: none; stroke: #000000; stroke-width: 0.8; stroke-linejoin: miter; stroke-linecap: square"/>
   </g>
   <g id="patch_6">
    <path d="M 79.94 32.64 
L 552.578636 32.64 
" style="fill: none; stroke: #000000; stroke-width: 0.8; stroke-linejoin: miter; stroke-linecap: square"/>
   </g>
   <g id="text_10">
    <!-- 2024 -->
    <g transform="translate(295.899318 26.64) scale(0.16 -0.16)">
     <use xlink:href="#DejaVuSans-32"/>
     <use xlink:href="#DejaVuSans-30" transform="translate(63.623047 0)"/>
     <use xlink:href="#DejaVuSans-32" transform="translate(127.246094 0)"/>
     <use xlink:href="#DejaVuSans-34" transform="translate(190.869141 0)"/>
    </g>
   </g>
   <g id="legend_1">
    <g id="patch_7">
     <path d="M 364.501136 77.4675 
L 544.178636 77.4675 
Q 546.578636 77.4675 546.578636 75.0675 
L 546.578636 41.04 
Q 546.578636 38.64 544.178636 38.64 
L 364.501136 38.64 
Q 362.101136 38.64 362.101136 41.04 
L 362.101136 75.0675 
Q 362.101136 77.4675 364.501136 77.4675 
z
" style="fill: #ffffff; opacity: 0.8; stroke: #cccccc; stroke-linejoin: miter"/>
    </g>
    <g id="LineCollection_3">
     <path d="M 378.901136 54.358125 
L 378.901136 42.358125 
" style="fill: none; stroke: #ffa500; stroke-width: 1.5"/>
    </g>
    <g id="line2d_19"/>
    <g id="line2d_20">
     <g>
      <use xlink:href="#m93350b7567" x="378.901136" y="48.358125" style="fill: #ffa500; stroke: #ffa500"/>
     </g>
    </g>
    <g id="text_11">
     <!-- Current point system -->
     <g transform="translate(400.501136 52.558125) scale(0.12 -0.12)">
      <defs>
       <path id="DejaVuSans-43" d="M 4122 4306 
L 4122 3641 
Q 3803 3938 3442 4084 
Q 3081 4231 2675 4231 
Q 1875 4231 1450 3742 
Q 1025 3253 1025 2328 
Q 1025 1406 1450 917 
Q 1875 428 2675 428 
Q 3081 428 3442 575 
Q 3803 722 4122 1019 
L 4122 359 
Q 3791 134 3420 21 
Q 3050 -91 2638 -91 
Q 1578 -91 968 557 
Q 359 1206 359 2328 
Q 359 3453 968 4101 
Q 1578 4750 2638 4750 
Q 3056 4750 3426 4639 
Q 3797 4528 4122 4306 
z
" transform="scale(0.015625)"/>
       <path id="DejaVuSans-72" d="M 2631 2963 
Q 2534 3019 2420 3045 
Q 2306 3072 2169 3072 
Q 1681 3072 1420 2755 
Q 1159 2438 1159 1844 
L 1159 0 
L 581 0 
L 581 3500 
L 1159 3500 
L 1159 2956 
Q 1341 3275 1631 3429 
Q 1922 3584 2338 3584 
Q 2397 3584 2469 3576 
Q 2541 3569 2628 3553 
L 2631 2963 
z
" transform="scale(0.015625)"/>
       <path id="DejaVuSans-6e" d="M 3513 2113 
L 3513 0 
L 2938 0 
L 2938 2094 
Q 2938 2591 2744 2837 
Q 2550 3084 2163 3084 
Q 1697 3084 1428 2787 
Q 1159 2491 1159 1978 
L 1159 0 
L 581 0 
L 581 3500 
L 1159 3500 
L 1159 2956 
Q 1366 3272 1645 3428 
Q 1925 3584 2291 3584 
Q 2894 3584 3203 3211 
Q 3513 2838 3513 2113 
z
" transform="scale(0.015625)"/>
       <path id="DejaVuSans-6f" d="M 1959 3097 
Q 1497 3097 1228 2736 
Q 959 2375 959 1747 
Q 959 1119 1226 758 
Q 1494 397 1959 397 
Q 2419 397 2687 759 
Q 2956 1122 2956 1747 
Q 2956 2369 2687 2733 
Q 2419 3097 1959 3097 
z
M 1959 3584 
Q 2709 3584 3137 3096 
Q 3566 2609 3566 1747 
Q 3566 888 3137 398 
Q 2709 -91 1959 -91 
Q 1206 -91 779 398 
Q 353 888 353 1747 
Q 353 2609 779 3096 
Q 1206 3584 1959 3584 
z
" transform="scale(0.015625)"/>
       <path id="DejaVuSans-69" d="M 603 3500 
L 1178 3500 
L 1178 0 
L 603 0 
L 603 3500 
z
M 603 4863 
L 1178 4863 
L 1178 4134 
L 603 4134 
L 603 4863 
z
" transform="scale(0.015625)"/>
       <path id="DejaVuSans-73" d="M 2834 3397 
L 2834 2853 
Q 2591 2978 2328 3040 
Q 2066 3103 1784 3103 
Q 1356 3103 1142 2972 
Q 928 2841 928 2578 
Q 928 2378 1081 2264 
Q 1234 2150 1697 2047 
L 1894 2003 
Q 2506 1872 2764 1633 
Q 3022 1394 3022 966 
Q 3022 478 2636 193 
Q 2250 -91 1575 -91 
Q 1294 -91 989 -36 
Q 684 19 347 128 
L 347 722 
Q 666 556 975 473 
Q 1284 391 1588 391 
Q 1994 391 2212 530 
Q 2431 669 2431 922 
Q 2431 1156 2273 1281 
Q 2116 1406 1581 1522 
L 1381 1569 
Q 847 1681 609 1914 
Q 372 2147 372 2553 
Q 372 3047 722 3315 
Q 1072 3584 1716 3584 
Q 2034 3584 2315 3537 
Q 2597 3491 2834 3397 
z
" transform="scale(0.015625)"/>
       <path id="DejaVuSans-79" d="M 2059 -325 
Q 1816 -950 1584 -1140 
Q 1353 -1331 966 -1331 
L 506 -1331 
L 506 -850 
L 844 -850 
Q 1081 -850 1212 -737 
Q 1344 -625 1503 -206 
L 1606 56 
L 191 3500 
L 800 3500 
L 1894 763 
L 2988 3500 
L 3597 3500 
L 2059 -325 
z
" transform="scale(0.015625)"/>
       <path id="DejaVuSans-6d" d="M 3328 2828 
Q 3544 3216 3844 3400 
Q 4144 3584 4550 3584 
Q 5097 3584 5394 3201 
Q 5691 2819 5691 2113 
L 5691 0 
L 5113 0 
L 5113 2094 
Q 5113 2597 4934 2840 
Q 4756 3084 4391 3084 
Q 3944 3084 3684 2787 
Q 3425 2491 3425 1978 
L 3425 0 
L 2847 0 
L 2847 2094 
Q 2847 2600 2669 2842 
Q 2491 3084 2119 3084 
Q 1678 3084 1418 2786 
Q 1159 2488 1159 1978 
L 1159 0 
L 581 0 
L 581 3500 
L 1159 3500 
L 1159 2956 
Q 1356 3278 1631 3431 
Q 1906 3584 2284 3584 
Q 2666 3584 2933 3390 
Q 3200 3197 3328 2828 
z
" transform="scale(0.015625)"/>
      </defs>
      <use xlink:href="#DejaVuSans-43"/>
      <use xlink:href="#DejaVuSans-75" transform="translate(69.824219 0)"/>
      <use xlink:href="#DejaVuSans-72" transform="translate(133.203125 0)"/>
      <use xlink:href="#DejaVuSans-72" transform="translate(172.566406 0)"/>
      <use xlink:href="#DejaVuSans-65" transform="translate(211.429688 0)"/>
      <use xlink:href="#DejaVuSans-6e" transform="translate(272.953125 0)"/>
      <use xlink:href="#DejaVuSans-74" transform="translate(336.332031 0)"/>
      <use xlink:href="#DejaVuSans-20" transform="translate(375.541016 0)"/>
      <use xlink:href="#DejaVuSans-70" transform="translate(407.328125 0)"/>
      <use xlink:href="#DejaVuSans-6f" transform="translate(470.804688 0)"/>
      <use xlink:href="#DejaVuSans-69" transform="translate(531.986328 0)"/>
      <use xlink:href="#DejaVuSans-6e" transform="translate(559.769531 0)"/>
      <use xlink:href="#DejaVuSans-74" transform="translate(623.148438 0)"/>
      <use xlink:href="#DejaVuSans-20" transform="translate(662.357422 0)"/>
      <use xlink:href="#DejaVuSans-73" transform="translate(694.144531 0)"/>
      <use xlink:href="#DejaVuSans-79" transform="translate(746.244141 0)"/>
      <use xlink:href="#DejaVuSans-73" transform="translate(805.423828 0)"/>
      <use xlink:href="#DejaVuSans-74" transform="translate(857.523438 0)"/>
      <use xlink:href="#DejaVuSans-65" transform="translate(896.732422 0)"/>
      <use xlink:href="#DejaVuSans-6d" transform="translate(958.255859 0)"/>
     </g>
    </g>
    <g id="LineCollection_4">
     <path d="M 378.901136 71.971875 
L 378.901136 59.971875 
" style="fill: none; stroke: #0000ff; stroke-opacity: 0.3; stroke-width: 1.5"/>
    </g>
    <g id="line2d_21"/>
    <g id="line2d_22">
     <g>
      <use xlink:href="#m9f864f73d9" x="378.901136" y="65.971875" style="fill: #0000ff; fill-opacity: 0.3; stroke: #0000ff; stroke-opacity: 0.3"/>
     </g>
    </g>
    <g id="text_12">
     <!-- Uniform 2-point system -->
     <g transform="translate(400.501136 70.171875) scale(0.12 -0.12)">
      <defs>
       <path id="DejaVuSans-55" d="M 556 4666 
L 1191 4666 
L 1191 1831 
Q 1191 1081 1462 751 
Q 1734 422 2344 422 
Q 2950 422 3222 751 
Q 3494 1081 3494 1831 
L 3494 4666 
L 4128 4666 
L 4128 1753 
Q 4128 841 3676 375 
Q 3225 -91 2344 -91 
Q 1459 -91 1007 375 
Q 556 841 556 1753 
L 556 4666 
z
" transform="scale(0.015625)"/>
       <path id="DejaVuSans-66" d="M 2375 4863 
L 2375 4384 
L 1825 4384 
Q 1516 4384 1395 4259 
Q 1275 4134 1275 3809 
L 1275 3500 
L 2222 3500 
L 2222 3053 
L 1275 3053 
L 1275 0 
L 697 0 
L 697 3053 
L 147 3053 
L 147 3500 
L 697 3500 
L 697 3744 
Q 697 4328 969 4595 
Q 1241 4863 1831 4863 
L 2375 4863 
z
" transform="scale(0.015625)"/>
       <path id="DejaVuSans-2d" d="M 313 2009 
L 1997 2009 
L 1997 1497 
L 313 1497 
L 313 2009 
z
" transform="scale(0.015625)"/>
      </defs>
      <use xlink:href="#DejaVuSans-55"/>
      <use xlink:href="#DejaVuSans-6e" transform="translate(73.193359 0)"/>
      <use xlink:href="#DejaVuSans-69" transform="translate(136.572266 0)"/>
      <use xlink:href="#DejaVuSans-66" transform="translate(164.355469 0)"/>
      <use xlink:href="#DejaVuSans-6f" transform="translate(199.560547 0)"/>
      <use xlink:href="#DejaVuSans-72" transform="translate(260.742188 0)"/>
      <use xlink:href="#DejaVuSans-6d" transform="translate(300.105469 0)"/>
      <use xlink:href="#DejaVuSans-20" transform="translate(397.517578 0)"/>
      <use xlink:href="#DejaVuSans-32" transform="translate(429.304688 0)"/>
      <use xlink:href="#DejaVuSans-2d" transform="translate(492.927734 0)"/>
      <use xlink:href="#DejaVuSans-70" transform="translate(529.011719 0)"/>
      <use xlink:href="#DejaVuSans-6f" transform="translate(592.488281 0)"/>
      <use xlink:href="#DejaVuSans-69" transform="translate(653.669922 0)"/>
      <use xlink:href="#DejaVuSans-6e" transform="translate(681.453125 0)"/>
      <use xlink:href="#DejaVuSans-74" transform="translate(744.832031 0)"/>
      <use xlink:href="#DejaVuSans-20" transform="translate(784.041016 0)"/>
      <use xlink:href="#DejaVuSans-73" transform="translate(815.828125 0)"/>
      <use xlink:href="#DejaVuSans-79" transform="translate(867.927734 0)"/>
      <use xlink:href="#DejaVuSans-73" transform="translate(927.107422 0)"/>
      <use xlink:href="#DejaVuSans-74" transform="translate(979.207031 0)"/>
      <use xlink:href="#DejaVuSans-65" transform="translate(1018.416016 0)"/>
      <use xlink:href="#DejaVuSans-6d" transform="translate(1079.939453 0)"/>
     </g>
    </g>
   </g>
  </g>
  <g id="axes_2">
   <g id="patch_8">
    <path d="M 79.94 522.52 
L 552.578636 522.52 
L 552.578636 286.89 
L 79.94 286.89 
z
" style="fill: #ffffff"/>
   </g>
   <g id="patch_9">
    <path d="M 101.423574 522.52 
L 119.326553 522.52 
L 119.326553 517.32709 
L 101.423574 517.32709 
z
" clip-path="url(#p267ca18dd0)"/>
   </g>
   <g id="patch_10">
    <path d="M 119.326553 522.52 
L 137.229532 522.52 
L 137.229532 340.851537 
L 119.326553 340.851537 
z
" clip-path="url(#p267ca18dd0)"/>
   </g>
   <g id="patch_11">
    <path d="M 137.229532 522.52 
L 155.13251 522.52 
L 155.13251 298.110476 
L 137.229532 298.110476 
z
" clip-path="url(#p267ca18dd0)"/>
   </g>
   <g id="patch_12">
    <path d="M 155.13251 522.52 
L 173.035489 522.52 
L 173.035489 385.502983 
L 155.13251 385.502983 
z
" clip-path="url(#p267ca18dd0)"/>
   </g>
   <g id="patch_13">
    <path d="M 173.035489 522.52 
L 190.938468 522.52 
L 190.938468 453.5718 
L 173.035489 453.5718 
z
" clip-path="url(#p267ca18dd0)"/>
   </g>
   <g id="patch_14">
    <path d="M 190.938468 522.52 
L 208.841446 522.52 
L 208.841446 456.990782 
L 190.938468 456.990782 
z
" clip-path="url(#p267ca18dd0)"/>
   </g>
   <g id="patch_15">
    <path d="M 208.841446 522.52 
L 226.744425 522.52 
L 226.744425 465.079592 
L 208.841446 465.079592 
z
" clip-path="url(#p267ca18dd0)"/>
   </g>
   <g id="patch_16">
    <path d="M 226.744425 522.52 
L 244.647404 522.52 
L 244.647404 476.799649 
L 226.744425 476.799649 
z
" clip-path="url(#p267ca18dd0)"/>
   </g>
   <g id="patch_17">
    <path d="M 244.647404 522.52 
L 262.550382 522.52 
L 262.550382 477.519833 
L 244.647404 477.519833 
z
" clip-path="url(#p267ca18dd0)"/>
   </g>
   <g id="patch_18">
    <path d="M 262.550382 522.52 
L 280.453361 522.52 
L 280.453361 486.275762 
L 262.550382 486.275762 
z
" clip-path="url(#p267ca18dd0)"/>
   </g>
   <g id="patch_19">
    <path d="M 280.453361 522.52 
L 298.35634 522.52 
L 298.35634 491.301892 
L 280.453361 491.301892 
z
" clip-path="url(#p267ca18dd0)"/>
   </g>
   <g id="patch_20">
    <path d="M 298.35634 522.52 
L 316.259318 522.52 
L 316.259318 488.368088 
L 298.35634 488.368088 
z
" clip-path="url(#p267ca18dd0)"/>
   </g>
   <g id="patch_21">
    <path d="M 316.259318 522.52 
L 334.162297 522.52 
L 334.162297 487.807102 
L 316.259318 487.807102 
z
" clip-path="url(#p267ca18dd0)"/>
   </g>
   <g id="patch_22">
    <path d="M 334.162297 522.52 
L 352.065275 522.52 
L 352.065275 432.087556 
L 334.162297 432.087556 
z
" clip-path="url(#p267ca18dd0)"/>
   </g>
   <g id="patch_23">
    <path d="M 352.065275 522.52 
L 369.968254 522.52 
L 369.968254 447.431279 
L 352.065275 447.431279 
z
" clip-path="url(#p267ca18dd0)"/>
   </g>
   <g id="patch_24">
    <path d="M 369.968254 522.52 
L 387.871233 522.52 
L 387.871233 477.951944 
L 369.968254 477.951944 
z
" clip-path="url(#p267ca18dd0)"/>
   </g>
   <g id="patch_25">
    <path d="M 387.871233 522.52 
L 405.774211 522.52 
L 405.774211 459.553123 
L 387.871233 459.553123 
z
" clip-path="url(#p267ca18dd0)"/>
   </g>
   <g id="patch_26">
    <path d="M 405.774211 522.52 
L 423.67719 522.52 
L 423.67719 363.76857 
L 405.774211 363.76857 
z
" clip-path="url(#p267ca18dd0)"/>
   </g>
   <g id="patch_27">
    <path d="M 423.67719 522.52 
L 441.580169 522.52 
L 441.580169 365.368138 
L 423.67719 365.368138 
z
" clip-path="url(#p267ca18dd0)"/>
   </g>
   <g id="patch_28">
    <path d="M 441.580169 522.52 
L 459.483147 522.52 
L 459.483147 453.882616 
L 441.580169 453.882616 
z
" clip-path="url(#p267ca18dd0)"/>
   </g>
   <g id="patch_29">
    <path d="M 459.483147 522.52 
L 477.386126 522.52 
L 477.386126 505.523643 
L 459.483147 505.523643 
z
" clip-path="url(#p267ca18dd0)"/>
   </g>
   <g id="patch_30">
    <path d="M 477.386126 522.52 
L 495.289105 522.52 
L 495.289105 516.637229 
L 477.386126 516.637229 
z
" clip-path="url(#p267ca18dd0)"/>
   </g>
   <g id="patch_31">
    <path d="M 495.289105 522.52 
L 513.192083 522.52 
L 513.192083 521.011403 
L 495.289105 521.011403 
z
" clip-path="url(#p267ca18dd0)"/>
   </g>
   <g id="patch_32">
    <path d="M 513.192083 522.52 
L 531.095062 522.52 
L 531.095062 522.429029 
L 513.192083 522.429029 
z
" clip-path="url(#p267ca18dd0)"/>
   </g>
   <g id="matplotlib.axis_3">
    <g id="xtick_9">
     <g id="line2d_23">
      <g>
       <use xlink:href="#m198ebec162" x="134.245702" y="522.52" style="stroke: #000000; stroke-width: 0.8"/>
      </g>
     </g>
     <g id="text_13">
      <!-- 5 -->
      <g transform="translate(129.791952 540.157812) scale(0.14 -0.14)">
       <defs>
        <path id="DejaVuSans-35" d="M 691 4666 
L 3169 4666 
L 3169 4134 
L 1269 4134 
L 1269 2991 
Q 1406 3038 1543 3061 
Q 1681 3084 1819 3084 
Q 2600 3084 3056 2656 
Q 3513 2228 3513 1497 
Q 3513 744 3044 326 
Q 2575 -91 1722 -91 
Q 1428 -91 1123 -41 
Q 819 9 494 109 
L 494 744 
Q 775 591 1075 516 
Q 1375 441 1709 441 
Q 2250 441 2565 725 
Q 2881 1009 2881 1497 
Q 2881 1984 2565 2268 
Q 2250 2553 1709 2553 
Q 1456 2553 1204 2497 
Q 953 2441 691 2322 
L 691 4666 
z
" transform="scale(0.015625)"/>
       </defs>
       <use xlink:href="#DejaVuSans-35"/>
      </g>
     </g>
    </g>
    <g id="xtick_10">
     <g id="line2d_24">
      <g>
       <use xlink:href="#m198ebec162" x="193.922297" y="522.52" style="stroke: #000000; stroke-width: 0.8"/>
      </g>
     </g>
     <g id="text_14">
      <!-- 10 -->
      <g transform="translate(185.014797 540.157812) scale(0.14 -0.14)">
       <use xlink:href="#DejaVuSans-31"/>
       <use xlink:href="#DejaVuSans-30" transform="translate(63.623047 0)"/>
      </g>
     </g>
    </g>
    <g id="xtick_11">
     <g id="line2d_25">
      <g>
       <use xlink:href="#m198ebec162" x="253.598893" y="522.52" style="stroke: #000000; stroke-width: 0.8"/>
      </g>
     </g>
     <g id="text_15">
      <!-- 15 -->
      <g transform="translate(244.691393 540.157812) scale(0.14 -0.14)">
       <use xlink:href="#DejaVuSans-31"/>
       <use xlink:href="#DejaVuSans-35" transform="translate(63.623047 0)"/>
      </g>
     </g>
    </g>
    <g id="xtick_12">
     <g id="line2d_26">
      <g>
       <use xlink:href="#m198ebec162" x="313.275488" y="522.52" style="stroke: #000000; stroke-width: 0.8"/>
      </g>
     </g>
     <g id="text_16">
      <!-- 20 -->
      <g transform="translate(304.367988 540.157812) scale(0.14 -0.14)">
       <use xlink:href="#DejaVuSans-32"/>
       <use xlink:href="#DejaVuSans-30" transform="translate(63.623047 0)"/>
      </g>
     </g>
    </g>
    <g id="xtick_13">
     <g id="line2d_27">
      <g>
       <use xlink:href="#m198ebec162" x="372.952084" y="522.52" style="stroke: #000000; stroke-width: 0.8"/>
      </g>
     </g>
     <g id="text_17">
      <!-- 25 -->
      <g transform="translate(364.044584 540.157812) scale(0.14 -0.14)">
       <use xlink:href="#DejaVuSans-32"/>
       <use xlink:href="#DejaVuSans-35" transform="translate(63.623047 0)"/>
      </g>
     </g>
    </g>
    <g id="xtick_14">
     <g id="line2d_28">
      <g>
       <use xlink:href="#m198ebec162" x="432.628679" y="522.52" style="stroke: #000000; stroke-width: 0.8"/>
      </g>
     </g>
     <g id="text_18">
      <!-- 30 -->
      <g transform="translate(423.721179 540.157812) scale(0.14 -0.14)">
       <defs>
        <path id="DejaVuSans-33" d="M 2597 2516 
Q 3050 2419 3304 2112 
Q 3559 1806 3559 1356 
Q 3559 666 3084 287 
Q 2609 -91 1734 -91 
Q 1441 -91 1130 -33 
Q 819 25 488 141 
L 488 750 
Q 750 597 1062 519 
Q 1375 441 1716 441 
Q 2309 441 2620 675 
Q 2931 909 2931 1356 
Q 2931 1769 2642 2001 
Q 2353 2234 1838 2234 
L 1294 2234 
L 1294 2753 
L 1863 2753 
Q 2328 2753 2575 2939 
Q 2822 3125 2822 3475 
Q 2822 3834 2567 4026 
Q 2313 4219 1838 4219 
Q 1578 4219 1281 4162 
Q 984 4106 628 3988 
L 628 4550 
Q 988 4650 1302 4700 
Q 1616 4750 1894 4750 
Q 2613 4750 3031 4423 
Q 3450 4097 3450 3541 
Q 3450 3153 3228 2886 
Q 3006 2619 2597 2516 
z
" transform="scale(0.015625)"/>
       </defs>
       <use xlink:href="#DejaVuSans-33"/>
       <use xlink:href="#DejaVuSans-30" transform="translate(63.623047 0)"/>
      </g>
     </g>
    </g>
    <g id="xtick_15">
     <g id="line2d_29">
      <g>
       <use xlink:href="#m198ebec162" x="492.305275" y="522.52" style="stroke: #000000; stroke-width: 0.8"/>
      </g>
     </g>
     <g id="text_19">
      <!-- 35 -->
      <g transform="translate(483.397775 540.157812) scale(0.14 -0.14)">
       <use xlink:href="#DejaVuSans-33"/>
       <use xlink:href="#DejaVuSans-35" transform="translate(63.623047 0)"/>
      </g>
     </g>
    </g>
    <g id="xtick_16">
     <g id="line2d_30">
      <g>
       <use xlink:href="#m198ebec162" x="551.98187" y="522.52" style="stroke: #000000; stroke-width: 0.8"/>
      </g>
     </g>
     <g id="text_20">
      <!-- 40 -->
      <g transform="translate(543.07437 540.157812) scale(0.14 -0.14)">
       <use xlink:href="#DejaVuSans-34"/>
       <use xlink:href="#DejaVuSans-30" transform="translate(63.623047 0)"/>
      </g>
     </g>
    </g>
    <g id="text_21">
     <!-- Shot Distance (ft) -->
     <g transform="translate(254.746818 557.707188) scale(0.14 -0.14)">
      <defs>
       <path id="DejaVuSans-53" d="M 3425 4513 
L 3425 3897 
Q 3066 4069 2747 4153 
Q 2428 4238 2131 4238 
Q 1616 4238 1336 4038 
Q 1056 3838 1056 3469 
Q 1056 3159 1242 3001 
Q 1428 2844 1947 2747 
L 2328 2669 
Q 3034 2534 3370 2195 
Q 3706 1856 3706 1288 
Q 3706 609 3251 259 
Q 2797 -91 1919 -91 
Q 1588 -91 1214 -16 
Q 841 59 441 206 
L 441 856 
Q 825 641 1194 531 
Q 1563 422 1919 422 
Q 2459 422 2753 634 
Q 3047 847 3047 1241 
Q 3047 1584 2836 1778 
Q 2625 1972 2144 2069 
L 1759 2144 
Q 1053 2284 737 2584 
Q 422 2884 422 3419 
Q 422 4038 858 4394 
Q 1294 4750 2059 4750 
Q 2388 4750 2728 4690 
Q 3069 4631 3425 4513 
z
" transform="scale(0.015625)"/>
       <path id="DejaVuSans-68" d="M 3513 2113 
L 3513 0 
L 2938 0 
L 2938 2094 
Q 2938 2591 2744 2837 
Q 2550 3084 2163 3084 
Q 1697 3084 1428 2787 
Q 1159 2491 1159 1978 
L 1159 0 
L 581 0 
L 581 4863 
L 1159 4863 
L 1159 2956 
Q 1366 3272 1645 3428 
Q 1925 3584 2291 3584 
Q 2894 3584 3203 3211 
Q 3513 2838 3513 2113 
z
" transform="scale(0.015625)"/>
       <path id="DejaVuSans-44" d="M 1259 4147 
L 1259 519 
L 2022 519 
Q 2988 519 3436 956 
Q 3884 1394 3884 2338 
Q 3884 3275 3436 3711 
Q 2988 4147 2022 4147 
L 1259 4147 
z
M 628 4666 
L 1925 4666 
Q 3281 4666 3915 4102 
Q 4550 3538 4550 2338 
Q 4550 1131 3912 565 
Q 3275 0 1925 0 
L 628 0 
L 628 4666 
z
" transform="scale(0.015625)"/>
       <path id="DejaVuSans-28" d="M 1984 4856 
Q 1566 4138 1362 3434 
Q 1159 2731 1159 2009 
Q 1159 1288 1364 580 
Q 1569 -128 1984 -844 
L 1484 -844 
Q 1016 -109 783 600 
Q 550 1309 550 2009 
Q 550 2706 781 3412 
Q 1013 4119 1484 4856 
L 1984 4856 
z
" transform="scale(0.015625)"/>
       <path id="DejaVuSans-29" d="M 513 4856 
L 1013 4856 
Q 1481 4119 1714 3412 
Q 1947 2706 1947 2009 
Q 1947 1309 1714 600 
Q 1481 -109 1013 -844 
L 513 -844 
Q 928 -128 1133 580 
Q 1338 1288 1338 2009 
Q 1338 2731 1133 3434 
Q 928 4138 513 4856 
z
" transform="scale(0.015625)"/>
      </defs>
      <use xlink:href="#DejaVuSans-53"/>
      <use xlink:href="#DejaVuSans-68" transform="translate(63.476562 0)"/>
      <use xlink:href="#DejaVuSans-6f" transform="translate(126.855469 0)"/>
      <use xlink:href="#DejaVuSans-74" transform="translate(188.037109 0)"/>
      <use xlink:href="#DejaVuSans-20" transform="translate(227.246094 0)"/>
      <use xlink:href="#DejaVuSans-44" transform="translate(259.033203 0)"/>
      <use xlink:href="#DejaVuSans-69" transform="translate(336.035156 0)"/>
      <use xlink:href="#DejaVuSans-73" transform="translate(363.818359 0)"/>
      <use xlink:href="#DejaVuSans-74" transform="translate(415.917969 0)"/>
      <use xlink:href="#DejaVuSans-61" transform="translate(455.126953 0)"/>
      <use xlink:href="#DejaVuSans-6e" transform="translate(516.40625 0)"/>
      <use xlink:href="#DejaVuSans-63" transform="translate(579.785156 0)"/>
      <use xlink:href="#DejaVuSans-65" transform="translate(634.765625 0)"/>
      <use xlink:href="#DejaVuSans-20" transform="translate(696.289062 0)"/>
      <use xlink:href="#DejaVuSans-28" transform="translate(728.076172 0)"/>
      <use xlink:href="#DejaVuSans-66" transform="translate(767.089844 0)"/>
      <use xlink:href="#DejaVuSans-74" transform="translate(800.544922 0)"/>
      <use xlink:href="#DejaVuSans-29" transform="translate(839.753906 0)"/>
     </g>
    </g>
   </g>
   <g id="matplotlib.axis_4">
    <g id="ytick_9">
     <g id="line2d_31">
      <g>
       <use xlink:href="#m647c6b50e6" x="79.94" y="522.52" style="stroke: #000000; stroke-width: 0.8"/>
      </g>
     </g>
     <g id="text_22">
      <!-- 0.00 -->
      <g transform="translate(41.768125 527.838906) scale(0.14 -0.14)">
       <use xlink:href="#DejaVuSans-30"/>
       <use xlink:href="#DejaVuSans-2e" transform="translate(63.623047 0)"/>
       <use xlink:href="#DejaVuSans-30" transform="translate(95.410156 0)"/>
       <use xlink:href="#DejaVuSans-30" transform="translate(159.033203 0)"/>
      </g>
     </g>
    </g>
    <g id="ytick_10">
     <g id="line2d_32">
      <g>
       <use xlink:href="#m647c6b50e6" x="79.94" y="489.361033" style="stroke: #000000; stroke-width: 0.8"/>
      </g>
     </g>
     <g id="text_23">
      <!-- 0.02 -->
      <g transform="translate(41.768125 494.679939) scale(0.14 -0.14)">
       <use xlink:href="#DejaVuSans-30"/>
       <use xlink:href="#DejaVuSans-2e" transform="translate(63.623047 0)"/>
       <use xlink:href="#DejaVuSans-30" transform="translate(95.410156 0)"/>
       <use xlink:href="#DejaVuSans-32" transform="translate(159.033203 0)"/>
      </g>
     </g>
    </g>
    <g id="ytick_11">
     <g id="line2d_33">
      <g>
       <use xlink:href="#m647c6b50e6" x="79.94" y="456.202066" style="stroke: #000000; stroke-width: 0.8"/>
      </g>
     </g>
     <g id="text_24">
      <!-- 0.04 -->
      <g transform="translate(41.768125 461.520972) scale(0.14 -0.14)">
       <use xlink:href="#DejaVuSans-30"/>
       <use xlink:href="#DejaVuSans-2e" transform="translate(63.623047 0)"/>
       <use xlink:href="#DejaVuSans-30" transform="translate(95.410156 0)"/>
       <use xlink:href="#DejaVuSans-34" transform="translate(159.033203 0)"/>
      </g>
     </g>
    </g>
    <g id="ytick_12">
     <g id="line2d_34">
      <g>
       <use xlink:href="#m647c6b50e6" x="79.94" y="423.043099" style="stroke: #000000; stroke-width: 0.8"/>
      </g>
     </g>
     <g id="text_25">
      <!-- 0.06 -->
      <g transform="translate(41.768125 428.362005) scale(0.14 -0.14)">
       <use xlink:href="#DejaVuSans-30"/>
       <use xlink:href="#DejaVuSans-2e" transform="translate(63.623047 0)"/>
       <use xlink:href="#DejaVuSans-30" transform="translate(95.410156 0)"/>
       <use xlink:href="#DejaVuSans-36" transform="translate(159.033203 0)"/>
      </g>
     </g>
    </g>
    <g id="ytick_13">
     <g id="line2d_35">
      <g>
       <use xlink:href="#m647c6b50e6" x="79.94" y="389.884131" style="stroke: #000000; stroke-width: 0.8"/>
      </g>
     </g>
     <g id="text_26">
      <!-- 0.08 -->
      <g transform="translate(41.768125 395.203038) scale(0.14 -0.14)">
       <use xlink:href="#DejaVuSans-30"/>
       <use xlink:href="#DejaVuSans-2e" transform="translate(63.623047 0)"/>
       <use xlink:href="#DejaVuSans-30" transform="translate(95.410156 0)"/>
       <use xlink:href="#DejaVuSans-38" transform="translate(159.033203 0)"/>
      </g>
     </g>
    </g>
    <g id="ytick_14">
     <g id="line2d_36">
      <g>
       <use xlink:href="#m647c6b50e6" x="79.94" y="356.725164" style="stroke: #000000; stroke-width: 0.8"/>
      </g>
     </g>
     <g id="text_27">
      <!-- 0.10 -->
      <g transform="translate(41.768125 362.044071) scale(0.14 -0.14)">
       <use xlink:href="#DejaVuSans-30"/>
       <use xlink:href="#DejaVuSans-2e" transform="translate(63.623047 0)"/>
       <use xlink:href="#DejaVuSans-31" transform="translate(95.410156 0)"/>
       <use xlink:href="#DejaVuSans-30" transform="translate(159.033203 0)"/>
      </g>
     </g>
    </g>
    <g id="ytick_15">
     <g id="line2d_37">
      <g>
       <use xlink:href="#m647c6b50e6" x="79.94" y="323.566197" style="stroke: #000000; stroke-width: 0.8"/>
      </g>
     </g>
     <g id="text_28">
      <!-- 0.12 -->
      <g transform="translate(41.768125 328.885103) scale(0.14 -0.14)">
       <use xlink:href="#DejaVuSans-30"/>
       <use xlink:href="#DejaVuSans-2e" transform="translate(63.623047 0)"/>
       <use xlink:href="#DejaVuSans-31" transform="translate(95.410156 0)"/>
       <use xlink:href="#DejaVuSans-32" transform="translate(159.033203 0)"/>
      </g>
     </g>
    </g>
    <g id="ytick_16">
     <g id="line2d_38">
      <g>
       <use xlink:href="#m647c6b50e6" x="79.94" y="290.40723" style="stroke: #000000; stroke-width: 0.8"/>
      </g>
     </g>
     <g id="text_29">
      <!-- 0.14 -->
      <g transform="translate(41.768125 295.726136) scale(0.14 -0.14)">
       <use xlink:href="#DejaVuSans-30"/>
       <use xlink:href="#DejaVuSans-2e" transform="translate(63.623047 0)"/>
       <use xlink:href="#DejaVuSans-31" transform="translate(95.410156 0)"/>
       <use xlink:href="#DejaVuSans-34" transform="translate(159.033203 0)"/>
      </g>
     </g>
    </g>
    <g id="text_30">
     <!-- Fraction of shots -->
     <g transform="translate(34.856563 462.601562) rotate(-90) scale(0.14 -0.14)">
      <defs>
       <path id="DejaVuSans-46" d="M 628 4666 
L 3309 4666 
L 3309 4134 
L 1259 4134 
L 1259 2759 
L 3109 2759 
L 3109 2228 
L 1259 2228 
L 1259 0 
L 628 0 
L 628 4666 
z
" transform="scale(0.015625)"/>
      </defs>
      <use xlink:href="#DejaVuSans-46"/>
      <use xlink:href="#DejaVuSans-72" transform="translate(50.269531 0)"/>
      <use xlink:href="#DejaVuSans-61" transform="translate(91.382812 0)"/>
      <use xlink:href="#DejaVuSans-63" transform="translate(152.662109 0)"/>
      <use xlink:href="#DejaVuSans-74" transform="translate(207.642578 0)"/>
      <use xlink:href="#DejaVuSans-69" transform="translate(246.851562 0)"/>
      <use xlink:href="#DejaVuSans-6f" transform="translate(274.634766 0)"/>
      <use xlink:href="#DejaVuSans-6e" transform="translate(335.816406 0)"/>
      <use xlink:href="#DejaVuSans-20" transform="translate(399.195312 0)"/>
      <use xlink:href="#DejaVuSans-6f" transform="translate(430.982422 0)"/>
      <use xlink:href="#DejaVuSans-66" transform="translate(492.164062 0)"/>
      <use xlink:href="#DejaVuSans-20" transform="translate(527.369141 0)"/>
      <use xlink:href="#DejaVuSans-73" transform="translate(559.15625 0)"/>
      <use xlink:href="#DejaVuSans-68" transform="translate(611.255859 0)"/>
      <use xlink:href="#DejaVuSans-6f" transform="translate(674.634766 0)"/>
      <use xlink:href="#DejaVuSans-74" transform="translate(735.816406 0)"/>
      <use xlink:href="#DejaVuSans-73" transform="translate(775.025391 0)"/>
     </g>
    </g>
   </g>
   <g id="patch_33">
    <path d="M 79.94 522.52 
L 79.94 286.89 
" style="fill: none; stroke: #000000; stroke-width: 0.8; stroke-linejoin: miter; stroke-linecap: square"/>
   </g>
   <g id="patch_34">
    <path d="M 552.578636 522.52 
L 552.578636 286.89 
" style="fill: none; stroke: #000000; stroke-width: 0.8; stroke-linejoin: miter; stroke-linecap: square"/>
   </g>
   <g id="patch_35">
    <path d="M 79.94 522.52 
L 552.578636 522.52 
" style="fill: none; stroke: #000000; stroke-width: 0.8; stroke-linejoin: miter; stroke-linecap: square"/>
   </g>
   <g id="patch_36">
    <path d="M 79.94 286.89 
L 552.578636 286.89 
" style="fill: none; stroke: #000000; stroke-width: 0.8; stroke-linejoin: miter; stroke-linecap: square"/>
   </g>
  </g>
 </g>
 <defs>
  <clipPath id="p18b52354a7">
   <rect x="79.94" y="32.64" width="472.638636" height="235.63"/>
  </clipPath>
  <clipPath id="p267ca18dd0">
   <rect x="79.94" y="286.89" width="472.638636" height="235.63"/>
  </clipPath>
 </defs>
</svg>
