<?xml version="1.0" encoding="utf-8" standalone="no"?>
<!DOCTYPE svg PUBLIC "-//W3C//DTD SVG 1.1//EN"
  "http://www.w3.org/Graphics/SVG/1.1/DTD/svg11.dtd">
<svg xmlns:xlink="http://www.w3.org/1999/xlink" width="576pt" height="432pt" viewBox="0 0 576 432" xmlns="http://www.w3.org/2000/svg" version="1.1">
 <metadata>
  <rdf:RDF xmlns:dc="http://purl.org/dc/elements/1.1/" xmlns:cc="http://creativecommons.org/ns#" xmlns:rdf="http://www.w3.org/1999/02/22-rdf-syntax-ns#">
   <cc:Work>
    <dc:type rdf:resource="http://purl.org/dc/dcmitype/StillImage"/>
    <dc:date>2025-11-05T11:45:58.190732</dc:date>
    <dc:format>image/svg+xml</dc:format>
    <dc:creator>
     <cc:Agent>
      <dc:title>Matplotlib v3.10.1, https://matplotlib.org/</dc:title>
     </cc:Agent>
    </dc:creator>
   </cc:Work>
  </rdf:RDF>
 </metadata>
 <defs>
  <style type="text/css">*{stroke-linejoin: round; stroke-linecap: butt}</style>
 </defs>
 <g id="figure_1">
  <g id="patch_1">
   <path d="M 0 432 
L 576 432 
L 576 0 
L 0 0 
z
" style="fill: #ffffff"/>
  </g>
  <g id="axes_1">
   <g id="patch_2">
    <path d="M 62.12 378.52 
L 560.88 378.52 
L 560.88 32.64 
L 62.12 32.64 
z
" style="fill: #ffffff"/>
   </g>
   <g id="matplotlib.axis_1">
    <g id="xtick_1">
     <g id="line2d_1">
      <defs>
       <path id="m31be4e2679" d="M 0 0 
L 0 3.5 
" style="stroke: #000000; stroke-width: 0.8"/>
      </defs>
      <g>
       <use xlink:href="#m31be4e2679" x="111.694159" y="378.52" style="stroke: #000000; stroke-width: 0.8"/>
      </g>
     </g>
     <g id="text_1">
      <!-- 5 -->
      <g transform="translate(107.240409 396.157812) scale(0.14 -0.14)">
       <defs>
        <path id="DejaVuSans-35" d="M 691 4666 
L 3169 4666 
L 3169 4134 
L 1269 4134 
L 1269 2991 
Q 1406 3038 1543 3061 
Q 1681 3084 1819 3084 
Q 2600 3084 3056 2656 
Q 3513 2228 3513 1497 
Q 3513 744 3044 326 
Q 2575 -91 1722 -91 
Q 1428 -91 1123 -41 
Q 819 9 494 109 
L 494 744 
Q 775 591 1075 516 
Q 1375 441 1709 441 
Q 2250 441 2565 725 
Q 2881 1009 2881 1497 
Q 2881 1984 2565 2268 
Q 2250 2553 1709 2553 
Q 1456 2553 1204 2497 
Q 953 2441 691 2322 
L 691 4666 
z
" transform="scale(0.015625)"/>
       </defs>
       <use xlink:href="#DejaVuSans-35"/>
      </g>
     </g>
    </g>
    <g id="xtick_2">
     <g id="line2d_2">
      <g>
       <use xlink:href="#m31be4e2679" x="177.311841" y="378.52" style="stroke: #000000; stroke-width: 0.8"/>
      </g>
     </g>
     <g id="text_2">
      <!-- 10 -->
      <g transform="translate(168.404341 396.157812) scale(0.14 -0.14)">
       <defs>
        <path id="DejaVuSans-31" d="M 794 531 
L 1825 531 
L 1825 4091 
L 703 3866 
L 703 4441 
L 1819 4666 
L 2450 4666 
L 2450 531 
L 3481 531 
L 3481 0 
L 794 0 
L 794 531 
z
" transform="scale(0.015625)"/>
        <path id="DejaVuSans-30" d="M 2034 4250 
Q 1547 4250 1301 3770 
Q 1056 3291 1056 2328 
Q 1056 1369 1301 889 
Q 1547 409 2034 409 
Q 2525 409 2770 889 
Q 3016 1369 3016 2328 
Q 3016 3291 2770 3770 
Q 2525 4250 2034 4250 
z
M 2034 4750 
Q 2819 4750 3233 4129 
Q 3647 3509 3647 2328 
Q 3647 1150 3233 529 
Q 2819 -91 2034 -91 
Q 1250 -91 836 529 
Q 422 1150 422 2328 
Q 422 3509 836 4129 
Q 1250 4750 2034 4750 
z
" transform="scale(0.015625)"/>
       </defs>
       <use xlink:href="#DejaVuSans-31"/>
       <use xlink:href="#DejaVuSans-30" transform="translate(63.623047 0)"/>
      </g>
     </g>
    </g>
    <g id="xtick_3">
     <g id="line2d_3">
      <g>
       <use xlink:href="#m31be4e2679" x="242.929522" y="378.52" style="stroke: #000000; stroke-width: 0.8"/>
      </g>
     </g>
     <g id="text_3">
      <!-- 15 -->
      <g transform="translate(234.022022 396.157812) scale(0.14 -0.14)">
       <use xlink:href="#DejaVuSans-31"/>
       <use xlink:href="#DejaVuSans-35" transform="translate(63.623047 0)"/>
      </g>
     </g>
    </g>
    <g id="xtick_4">
     <g id="line2d_4">
      <g>
       <use xlink:href="#m31be4e2679" x="308.547204" y="378.52" style="stroke: #000000; stroke-width: 0.8"/>
      </g>
     </g>
     <g id="text_4">
      <!-- 20 -->
      <g transform="translate(299.639704 396.157812) scale(0.14 -0.14)">
       <defs>
        <path id="DejaVuSans-32" d="M 1228 531 
L 3431 531 
L 3431 0 
L 469 0 
L 469 531 
Q 828 903 1448 1529 
Q 2069 2156 2228 2338 
Q 2531 2678 2651 2914 
Q 2772 3150 2772 3378 
Q 2772 3750 2511 3984 
Q 2250 4219 1831 4219 
Q 1534 4219 1204 4116 
Q 875 4013 500 3803 
L 500 4441 
Q 881 4594 1212 4672 
Q 1544 4750 1819 4750 
Q 2544 4750 2975 4387 
Q 3406 4025 3406 3419 
Q 3406 3131 3298 2873 
Q 3191 2616 2906 2266 
Q 2828 2175 2409 1742 
Q 1991 1309 1228 531 
z
" transform="scale(0.015625)"/>
       </defs>
       <use xlink:href="#DejaVuSans-32"/>
       <use xlink:href="#DejaVuSans-30" transform="translate(63.623047 0)"/>
      </g>
     </g>
    </g>
    <g id="xtick_5">
     <g id="line2d_5">
      <g>
       <use xlink:href="#m31be4e2679" x="374.164886" y="378.52" style="stroke: #000000; stroke-width: 0.8"/>
      </g>
     </g>
     <g id="text_5">
      <!-- 25 -->
      <g transform="translate(365.257386 396.157812) scale(0.14 -0.14)">
       <use xlink:href="#DejaVuSans-32"/>
       <use xlink:href="#DejaVuSans-35" transform="translate(63.623047 0)"/>
      </g>
     </g>
    </g>
    <g id="xtick_6">
     <g id="line2d_6">
      <g>
       <use xlink:href="#m31be4e2679" x="439.782568" y="378.52" style="stroke: #000000; stroke-width: 0.8"/>
      </g>
     </g>
     <g id="text_6">
      <!-- 30 -->
      <g transform="translate(430.875068 396.157812) scale(0.14 -0.14)">
       <defs>
        <path id="DejaVuSans-33" d="M 2597 2516 
Q 3050 2419 3304 2112 
Q 3559 1806 3559 1356 
Q 3559 666 3084 287 
Q 2609 -91 1734 -91 
Q 1441 -91 1130 -33 
Q 819 25 488 141 
L 488 750 
Q 750 597 1062 519 
Q 1375 441 1716 441 
Q 2309 441 2620 675 
Q 2931 909 2931 1356 
Q 2931 1769 2642 2001 
Q 2353 2234 1838 2234 
L 1294 2234 
L 1294 2753 
L 1863 2753 
Q 2328 2753 2575 2939 
Q 2822 3125 2822 3475 
Q 2822 3834 2567 4026 
Q 2313 4219 1838 4219 
Q 1578 4219 1281 4162 
Q 984 4106 628 3988 
L 628 4550 
Q 988 4650 1302 4700 
Q 1616 4750 1894 4750 
Q 2613 4750 3031 4423 
Q 3450 4097 3450 3541 
Q 3450 3153 3228 2886 
Q 3006 2619 2597 2516 
z
" transform="scale(0.015625)"/>
       </defs>
       <use xlink:href="#DejaVuSans-33"/>
       <use xlink:href="#DejaVuSans-30" transform="translate(63.623047 0)"/>
      </g>
     </g>
    </g>
    <g id="xtick_7">
     <g id="line2d_7">
      <g>
       <use xlink:href="#m31be4e2679" x="505.40025" y="378.52" style="stroke: #000000; stroke-width: 0.8"/>
      </g>
     </g>
     <g id="text_7">
      <!-- 35 -->
      <g transform="translate(496.49275 396.157812) scale(0.14 -0.14)">
       <use xlink:href="#DejaVuSans-33"/>
       <use xlink:href="#DejaVuSans-35" transform="translate(63.623047 0)"/>
      </g>
     </g>
    </g>
    <g id="text_8">
     <!-- Shot Distance (ft) -->
     <g transform="translate(249.9875 413.707188) scale(0.14 -0.14)">
      <defs>
       <path id="DejaVuSans-53" d="M 3425 4513 
L 3425 3897 
Q 3066 4069 2747 4153 
Q 2428 4238 2131 4238 
Q 1616 4238 1336 4038 
Q 1056 3838 1056 3469 
Q 1056 3159 1242 3001 
Q 1428 2844 1947 2747 
L 2328 2669 
Q 3034 2534 3370 2195 
Q 3706 1856 3706 1288 
Q 3706 609 3251 259 
Q 2797 -91 1919 -91 
Q 1588 -91 1214 -16 
Q 841 59 441 206 
L 441 856 
Q 825 641 1194 531 
Q 1563 422 1919 422 
Q 2459 422 2753 634 
Q 3047 847 3047 1241 
Q 3047 1584 2836 1778 
Q 2625 1972 2144 2069 
L 1759 2144 
Q 1053 2284 737 2584 
Q 422 2884 422 3419 
Q 422 4038 858 4394 
Q 1294 4750 2059 4750 
Q 2388 4750 2728 4690 
Q 3069 4631 3425 4513 
z
" transform="scale(0.015625)"/>
       <path id="DejaVuSans-68" d="M 3513 2113 
L 3513 0 
L 2938 0 
L 2938 2094 
Q 2938 2591 2744 2837 
Q 2550 3084 2163 3084 
Q 1697 3084 1428 2787 
Q 1159 2491 1159 1978 
L 1159 0 
L 581 0 
L 581 4863 
L 1159 4863 
L 1159 2956 
Q 1366 3272 1645 3428 
Q 1925 3584 2291 3584 
Q 2894 3584 3203 3211 
Q 3513 2838 3513 2113 
z
" transform="scale(0.015625)"/>
       <path id="DejaVuSans-6f" d="M 1959 3097 
Q 1497 3097 1228 2736 
Q 959 2375 959 1747 
Q 959 1119 1226 758 
Q 1494 397 1959 397 
Q 2419 397 2687 759 
Q 2956 1122 2956 1747 
Q 2956 2369 2687 2733 
Q 2419 3097 1959 3097 
z
M 1959 3584 
Q 2709 3584 3137 3096 
Q 3566 2609 3566 1747 
Q 3566 888 3137 398 
Q 2709 -91 1959 -91 
Q 1206 -91 779 398 
Q 353 888 353 1747 
Q 353 2609 779 3096 
Q 1206 3584 1959 3584 
z
" transform="scale(0.015625)"/>
       <path id="DejaVuSans-74" d="M 1172 4494 
L 1172 3500 
L 2356 3500 
L 2356 3053 
L 1172 3053 
L 1172 1153 
Q 1172 725 1289 603 
Q 1406 481 1766 481 
L 2356 481 
L 2356 0 
L 1766 0 
Q 1100 0 847 248 
Q 594 497 594 1153 
L 594 3053 
L 172 3053 
L 172 3500 
L 594 3500 
L 594 4494 
L 1172 4494 
z
" transform="scale(0.015625)"/>
       <path id="DejaVuSans-20" transform="scale(0.015625)"/>
       <path id="DejaVuSans-44" d="M 1259 4147 
L 1259 519 
L 2022 519 
Q 2988 519 3436 956 
Q 3884 1394 3884 2338 
Q 3884 3275 3436 3711 
Q 2988 4147 2022 4147 
L 1259 4147 
z
M 628 4666 
L 1925 4666 
Q 3281 4666 3915 4102 
Q 4550 3538 4550 2338 
Q 4550 1131 3912 565 
Q 3275 0 1925 0 
L 628 0 
L 628 4666 
z
" transform="scale(0.015625)"/>
       <path id="DejaVuSans-69" d="M 603 3500 
L 1178 3500 
L 1178 0 
L 603 0 
L 603 3500 
z
M 603 4863 
L 1178 4863 
L 1178 4134 
L 603 4134 
L 603 4863 
z
" transform="scale(0.015625)"/>
       <path id="DejaVuSans-73" d="M 2834 3397 
L 2834 2853 
Q 2591 2978 2328 3040 
Q 2066 3103 1784 3103 
Q 1356 3103 1142 2972 
Q 928 2841 928 2578 
Q 928 2378 1081 2264 
Q 1234 2150 1697 2047 
L 1894 2003 
Q 2506 1872 2764 1633 
Q 3022 1394 3022 966 
Q 3022 478 2636 193 
Q 2250 -91 1575 -91 
Q 1294 -91 989 -36 
Q 684 19 347 128 
L 347 722 
Q 666 556 975 473 
Q 1284 391 1588 391 
Q 1994 391 2212 530 
Q 2431 669 2431 922 
Q 2431 1156 2273 1281 
Q 2116 1406 1581 1522 
L 1381 1569 
Q 847 1681 609 1914 
Q 372 2147 372 2553 
Q 372 3047 722 3315 
Q 1072 3584 1716 3584 
Q 2034 3584 2315 3537 
Q 2597 3491 2834 3397 
z
" transform="scale(0.015625)"/>
       <path id="DejaVuSans-61" d="M 2194 1759 
Q 1497 1759 1228 1600 
Q 959 1441 959 1056 
Q 959 750 1161 570 
Q 1363 391 1709 391 
Q 2188 391 2477 730 
Q 2766 1069 2766 1631 
L 2766 1759 
L 2194 1759 
z
M 3341 1997 
L 3341 0 
L 2766 0 
L 2766 531 
Q 2569 213 2275 61 
Q 1981 -91 1556 -91 
Q 1019 -91 701 211 
Q 384 513 384 1019 
Q 384 1609 779 1909 
Q 1175 2209 1959 2209 
L 2766 2209 
L 2766 2266 
Q 2766 2663 2505 2880 
Q 2244 3097 1772 3097 
Q 1472 3097 1187 3025 
Q 903 2953 641 2809 
L 641 3341 
Q 956 3463 1253 3523 
Q 1550 3584 1831 3584 
Q 2591 3584 2966 3190 
Q 3341 2797 3341 1997 
z
" transform="scale(0.015625)"/>
       <path id="DejaVuSans-6e" d="M 3513 2113 
L 3513 0 
L 2938 0 
L 2938 2094 
Q 2938 2591 2744 2837 
Q 2550 3084 2163 3084 
Q 1697 3084 1428 2787 
Q 1159 2491 1159 1978 
L 1159 0 
L 581 0 
L 581 3500 
L 1159 3500 
L 1159 2956 
Q 1366 3272 1645 3428 
Q 1925 3584 2291 3584 
Q 2894 3584 3203 3211 
Q 3513 2838 3513 2113 
z
" transform="scale(0.015625)"/>
       <path id="DejaVuSans-63" d="M 3122 3366 
L 3122 2828 
Q 2878 2963 2633 3030 
Q 2388 3097 2138 3097 
Q 1578 3097 1268 2742 
Q 959 2388 959 1747 
Q 959 1106 1268 751 
Q 1578 397 2138 397 
Q 2388 397 2633 464 
Q 2878 531 3122 666 
L 3122 134 
Q 2881 22 2623 -34 
Q 2366 -91 2075 -91 
Q 1284 -91 818 406 
Q 353 903 353 1747 
Q 353 2603 823 3093 
Q 1294 3584 2113 3584 
Q 2378 3584 2631 3529 
Q 2884 3475 3122 3366 
z
" transform="scale(0.015625)"/>
       <path id="DejaVuSans-65" d="M 3597 1894 
L 3597 1613 
L 953 1613 
Q 991 1019 1311 708 
Q 1631 397 2203 397 
Q 2534 397 2845 478 
Q 3156 559 3463 722 
L 3463 178 
Q 3153 47 2828 -22 
Q 2503 -91 2169 -91 
Q 1331 -91 842 396 
Q 353 884 353 1716 
Q 353 2575 817 3079 
Q 1281 3584 2069 3584 
Q 2775 3584 3186 3129 
Q 3597 2675 3597 1894 
z
M 3022 2063 
Q 3016 2534 2758 2815 
Q 2500 3097 2075 3097 
Q 1594 3097 1305 2825 
Q 1016 2553 972 2059 
L 3022 2063 
z
" transform="scale(0.015625)"/>
       <path id="DejaVuSans-28" d="M 1984 4856 
Q 1566 4138 1362 3434 
Q 1159 2731 1159 2009 
Q 1159 1288 1364 580 
Q 1569 -128 1984 -844 
L 1484 -844 
Q 1016 -109 783 600 
Q 550 1309 550 2009 
Q 550 2706 781 3412 
Q 1013 4119 1484 4856 
L 1984 4856 
z
" transform="scale(0.015625)"/>
       <path id="DejaVuSans-66" d="M 2375 4863 
L 2375 4384 
L 1825 4384 
Q 1516 4384 1395 4259 
Q 1275 4134 1275 3809 
L 1275 3500 
L 2222 3500 
L 2222 3053 
L 1275 3053 
L 1275 0 
L 697 0 
L 697 3053 
L 147 3053 
L 147 3500 
L 697 3500 
L 697 3744 
Q 697 4328 969 4595 
Q 1241 4863 1831 4863 
L 2375 4863 
z
" transform="scale(0.015625)"/>
       <path id="DejaVuSans-29" d="M 513 4856 
L 1013 4856 
Q 1481 4119 1714 3412 
Q 1947 2706 1947 2009 
Q 1947 1309 1714 600 
Q 1481 -109 1013 -844 
L 513 -844 
Q 928 -128 1133 580 
Q 1338 1288 1338 2009 
Q 1338 2731 1133 3434 
Q 928 4138 513 4856 
z
" transform="scale(0.015625)"/>
      </defs>
      <use xlink:href="#DejaVuSans-53"/>
      <use xlink:href="#DejaVuSans-68" transform="translate(63.476562 0)"/>
      <use xlink:href="#DejaVuSans-6f" transform="translate(126.855469 0)"/>
      <use xlink:href="#DejaVuSans-74" transform="translate(188.037109 0)"/>
      <use xlink:href="#DejaVuSans-20" transform="translate(227.246094 0)"/>
      <use xlink:href="#DejaVuSans-44" transform="translate(259.033203 0)"/>
      <use xlink:href="#DejaVuSans-69" transform="translate(336.035156 0)"/>
      <use xlink:href="#DejaVuSans-73" transform="translate(363.818359 0)"/>
      <use xlink:href="#DejaVuSans-74" transform="translate(415.917969 0)"/>
      <use xlink:href="#DejaVuSans-61" transform="translate(455.126953 0)"/>
      <use xlink:href="#DejaVuSans-6e" transform="translate(516.40625 0)"/>
      <use xlink:href="#DejaVuSans-63" transform="translate(579.785156 0)"/>
      <use xlink:href="#DejaVuSans-65" transform="translate(634.765625 0)"/>
      <use xlink:href="#DejaVuSans-20" transform="translate(696.289062 0)"/>
      <use xlink:href="#DejaVuSans-28" transform="translate(728.076172 0)"/>
      <use xlink:href="#DejaVuSans-66" transform="translate(767.089844 0)"/>
      <use xlink:href="#DejaVuSans-74" transform="translate(800.544922 0)"/>
      <use xlink:href="#DejaVuSans-29" transform="translate(839.753906 0)"/>
     </g>
    </g>
   </g>
   <g id="matplotlib.axis_2">
    <g id="ytick_1">
     <g id="line2d_8">
      <defs>
       <path id="m99e0836d7e" d="M 0 0 
L -3.5 0 
" style="stroke: #000000; stroke-width: 0.8"/>
      </defs>
      <g>
       <use xlink:href="#m99e0836d7e" x="62.12" y="355.471901" style="stroke: #000000; stroke-width: 0.8"/>
      </g>
     </g>
     <g id="text_9">
      <!-- 0.2 -->
      <g transform="translate(32.855625 360.790807) scale(0.14 -0.14)">
       <defs>
        <path id="DejaVuSans-2e" d="M 684 794 
L 1344 794 
L 1344 0 
L 684 0 
L 684 794 
z
" transform="scale(0.015625)"/>
       </defs>
       <use xlink:href="#DejaVuSans-30"/>
       <use xlink:href="#DejaVuSans-2e" transform="translate(63.623047 0)"/>
       <use xlink:href="#DejaVuSans-32" transform="translate(95.410156 0)"/>
      </g>
     </g>
    </g>
    <g id="ytick_2">
     <g id="line2d_9">
      <g>
       <use xlink:href="#m99e0836d7e" x="62.12" y="311.514213" style="stroke: #000000; stroke-width: 0.8"/>
      </g>
     </g>
     <g id="text_10">
      <!-- 0.4 -->
      <g transform="translate(32.855625 316.83312) scale(0.14 -0.14)">
       <defs>
        <path id="DejaVuSans-34" d="M 2419 4116 
L 825 1625 
L 2419 1625 
L 2419 4116 
z
M 2253 4666 
L 3047 4666 
L 3047 1625 
L 3713 1625 
L 3713 1100 
L 3047 1100 
L 3047 0 
L 2419 0 
L 2419 1100 
L 313 1100 
L 313 1709 
L 2253 4666 
z
" transform="scale(0.015625)"/>
       </defs>
       <use xlink:href="#DejaVuSans-30"/>
       <use xlink:href="#DejaVuSans-2e" transform="translate(63.623047 0)"/>
       <use xlink:href="#DejaVuSans-34" transform="translate(95.410156 0)"/>
      </g>
     </g>
    </g>
    <g id="ytick_3">
     <g id="line2d_10">
      <g>
       <use xlink:href="#m99e0836d7e" x="62.12" y="267.556526" style="stroke: #000000; stroke-width: 0.8"/>
      </g>
     </g>
     <g id="text_11">
      <!-- 0.6 -->
      <g transform="translate(32.855625 272.875432) scale(0.14 -0.14)">
       <defs>
        <path id="DejaVuSans-36" d="M 2113 2584 
Q 1688 2584 1439 2293 
Q 1191 2003 1191 1497 
Q 1191 994 1439 701 
Q 1688 409 2113 409 
Q 2538 409 2786 701 
Q 3034 994 3034 1497 
Q 3034 2003 2786 2293 
Q 2538 2584 2113 2584 
z
M 3366 4563 
L 3366 3988 
Q 3128 4100 2886 4159 
Q 2644 4219 2406 4219 
Q 1781 4219 1451 3797 
Q 1122 3375 1075 2522 
Q 1259 2794 1537 2939 
Q 1816 3084 2150 3084 
Q 2853 3084 3261 2657 
Q 3669 2231 3669 1497 
Q 3669 778 3244 343 
Q 2819 -91 2113 -91 
Q 1303 -91 875 529 
Q 447 1150 447 2328 
Q 447 3434 972 4092 
Q 1497 4750 2381 4750 
Q 2619 4750 2861 4703 
Q 3103 4656 3366 4563 
z
" transform="scale(0.015625)"/>
       </defs>
       <use xlink:href="#DejaVuSans-30"/>
       <use xlink:href="#DejaVuSans-2e" transform="translate(63.623047 0)"/>
       <use xlink:href="#DejaVuSans-36" transform="translate(95.410156 0)"/>
      </g>
     </g>
    </g>
    <g id="ytick_4">
     <g id="line2d_11">
      <g>
       <use xlink:href="#m99e0836d7e" x="62.12" y="223.598839" style="stroke: #000000; stroke-width: 0.8"/>
      </g>
     </g>
     <g id="text_12">
      <!-- 0.8 -->
      <g transform="translate(32.855625 228.917745) scale(0.14 -0.14)">
       <defs>
        <path id="DejaVuSans-38" d="M 2034 2216 
Q 1584 2216 1326 1975 
Q 1069 1734 1069 1313 
Q 1069 891 1326 650 
Q 1584 409 2034 409 
Q 2484 409 2743 651 
Q 3003 894 3003 1313 
Q 3003 1734 2745 1975 
Q 2488 2216 2034 2216 
z
M 1403 2484 
Q 997 2584 770 2862 
Q 544 3141 544 3541 
Q 544 4100 942 4425 
Q 1341 4750 2034 4750 
Q 2731 4750 3128 4425 
Q 3525 4100 3525 3541 
Q 3525 3141 3298 2862 
Q 3072 2584 2669 2484 
Q 3125 2378 3379 2068 
Q 3634 1759 3634 1313 
Q 3634 634 3220 271 
Q 2806 -91 2034 -91 
Q 1263 -91 848 271 
Q 434 634 434 1313 
Q 434 1759 690 2068 
Q 947 2378 1403 2484 
z
M 1172 3481 
Q 1172 3119 1398 2916 
Q 1625 2713 2034 2713 
Q 2441 2713 2670 2916 
Q 2900 3119 2900 3481 
Q 2900 3844 2670 4047 
Q 2441 4250 2034 4250 
Q 1625 4250 1398 4047 
Q 1172 3844 1172 3481 
z
" transform="scale(0.015625)"/>
       </defs>
       <use xlink:href="#DejaVuSans-30"/>
       <use xlink:href="#DejaVuSans-2e" transform="translate(63.623047 0)"/>
       <use xlink:href="#DejaVuSans-38" transform="translate(95.410156 0)"/>
      </g>
     </g>
    </g>
    <g id="ytick_5">
     <g id="line2d_12">
      <g>
       <use xlink:href="#m99e0836d7e" x="62.12" y="179.641152" style="stroke: #000000; stroke-width: 0.8"/>
      </g>
     </g>
     <g id="text_13">
      <!-- 1.0 -->
      <g transform="translate(32.855625 184.960058) scale(0.14 -0.14)">
       <use xlink:href="#DejaVuSans-31"/>
       <use xlink:href="#DejaVuSans-2e" transform="translate(63.623047 0)"/>
       <use xlink:href="#DejaVuSans-30" transform="translate(95.410156 0)"/>
      </g>
     </g>
    </g>
    <g id="ytick_6">
     <g id="line2d_13">
      <g>
       <use xlink:href="#m99e0836d7e" x="62.12" y="135.683464" style="stroke: #000000; stroke-width: 0.8"/>
      </g>
     </g>
     <g id="text_14">
      <!-- 1.2 -->
      <g transform="translate(32.855625 141.002371) scale(0.14 -0.14)">
       <use xlink:href="#DejaVuSans-31"/>
       <use xlink:href="#DejaVuSans-2e" transform="translate(63.623047 0)"/>
       <use xlink:href="#DejaVuSans-32" transform="translate(95.410156 0)"/>
      </g>
     </g>
    </g>
    <g id="ytick_7">
     <g id="line2d_14">
      <g>
       <use xlink:href="#m99e0836d7e" x="62.12" y="91.725777" style="stroke: #000000; stroke-width: 0.8"/>
      </g>
     </g>
     <g id="text_15">
      <!-- 1.4 -->
      <g transform="translate(32.855625 97.044683) scale(0.14 -0.14)">
       <use xlink:href="#DejaVuSans-31"/>
       <use xlink:href="#DejaVuSans-2e" transform="translate(63.623047 0)"/>
       <use xlink:href="#DejaVuSans-34" transform="translate(95.410156 0)"/>
      </g>
     </g>
    </g>
    <g id="ytick_8">
     <g id="line2d_15">
      <g>
       <use xlink:href="#m99e0836d7e" x="62.12" y="47.76809" style="stroke: #000000; stroke-width: 0.8"/>
      </g>
     </g>
     <g id="text_16">
      <!-- 1.6 -->
      <g transform="translate(32.855625 53.086996) scale(0.14 -0.14)">
       <use xlink:href="#DejaVuSans-31"/>
       <use xlink:href="#DejaVuSans-2e" transform="translate(63.623047 0)"/>
       <use xlink:href="#DejaVuSans-36" transform="translate(95.410156 0)"/>
      </g>
     </g>
    </g>
    <g id="text_17">
     <!-- Expected Value (points per shot) -->
     <g transform="translate(25.944063 320.063906) rotate(-90) scale(0.14 -0.14)">
      <defs>
       <path id="DejaVuSans-45" d="M 628 4666 
L 3578 4666 
L 3578 4134 
L 1259 4134 
L 1259 2753 
L 3481 2753 
L 3481 2222 
L 1259 2222 
L 1259 531 
L 3634 531 
L 3634 0 
L 628 0 
L 628 4666 
z
" transform="scale(0.015625)"/>
       <path id="DejaVuSans-78" d="M 3513 3500 
L 2247 1797 
L 3578 0 
L 2900 0 
L 1881 1375 
L 863 0 
L 184 0 
L 1544 1831 
L 300 3500 
L 978 3500 
L 1906 2253 
L 2834 3500 
L 3513 3500 
z
" transform="scale(0.015625)"/>
       <path id="DejaVuSans-70" d="M 1159 525 
L 1159 -1331 
L 581 -1331 
L 581 3500 
L 1159 3500 
L 1159 2969 
Q 1341 3281 1617 3432 
Q 1894 3584 2278 3584 
Q 2916 3584 3314 3078 
Q 3713 2572 3713 1747 
Q 3713 922 3314 415 
Q 2916 -91 2278 -91 
Q 1894 -91 1617 61 
Q 1341 213 1159 525 
z
M 3116 1747 
Q 3116 2381 2855 2742 
Q 2594 3103 2138 3103 
Q 1681 3103 1420 2742 
Q 1159 2381 1159 1747 
Q 1159 1113 1420 752 
Q 1681 391 2138 391 
Q 2594 391 2855 752 
Q 3116 1113 3116 1747 
z
" transform="scale(0.015625)"/>
       <path id="DejaVuSans-64" d="M 2906 2969 
L 2906 4863 
L 3481 4863 
L 3481 0 
L 2906 0 
L 2906 525 
Q 2725 213 2448 61 
Q 2172 -91 1784 -91 
Q 1150 -91 751 415 
Q 353 922 353 1747 
Q 353 2572 751 3078 
Q 1150 3584 1784 3584 
Q 2172 3584 2448 3432 
Q 2725 3281 2906 2969 
z
M 947 1747 
Q 947 1113 1208 752 
Q 1469 391 1925 391 
Q 2381 391 2643 752 
Q 2906 1113 2906 1747 
Q 2906 2381 2643 2742 
Q 2381 3103 1925 3103 
Q 1469 3103 1208 2742 
Q 947 2381 947 1747 
z
" transform="scale(0.015625)"/>
       <path id="DejaVuSans-56" d="M 1831 0 
L 50 4666 
L 709 4666 
L 2188 738 
L 3669 4666 
L 4325 4666 
L 2547 0 
L 1831 0 
z
" transform="scale(0.015625)"/>
       <path id="DejaVuSans-6c" d="M 603 4863 
L 1178 4863 
L 1178 0 
L 603 0 
L 603 4863 
z
" transform="scale(0.015625)"/>
       <path id="DejaVuSans-75" d="M 544 1381 
L 544 3500 
L 1119 3500 
L 1119 1403 
Q 1119 906 1312 657 
Q 1506 409 1894 409 
Q 2359 409 2629 706 
Q 2900 1003 2900 1516 
L 2900 3500 
L 3475 3500 
L 3475 0 
L 2900 0 
L 2900 538 
Q 2691 219 2414 64 
Q 2138 -91 1772 -91 
Q 1169 -91 856 284 
Q 544 659 544 1381 
z
M 1991 3584 
L 1991 3584 
z
" transform="scale(0.015625)"/>
       <path id="DejaVuSans-72" d="M 2631 2963 
Q 2534 3019 2420 3045 
Q 2306 3072 2169 3072 
Q 1681 3072 1420 2755 
Q 1159 2438 1159 1844 
L 1159 0 
L 581 0 
L 581 3500 
L 1159 3500 
L 1159 2956 
Q 1341 3275 1631 3429 
Q 1922 3584 2338 3584 
Q 2397 3584 2469 3576 
Q 2541 3569 2628 3553 
L 2631 2963 
z
" transform="scale(0.015625)"/>
      </defs>
      <use xlink:href="#DejaVuSans-45"/>
      <use xlink:href="#DejaVuSans-78" transform="translate(63.183594 0)"/>
      <use xlink:href="#DejaVuSans-70" transform="translate(122.363281 0)"/>
      <use xlink:href="#DejaVuSans-65" transform="translate(185.839844 0)"/>
      <use xlink:href="#DejaVuSans-63" transform="translate(247.363281 0)"/>
      <use xlink:href="#DejaVuSans-74" transform="translate(302.34375 0)"/>
      <use xlink:href="#DejaVuSans-65" transform="translate(341.552734 0)"/>
      <use xlink:href="#DejaVuSans-64" transform="translate(403.076172 0)"/>
      <use xlink:href="#DejaVuSans-20" transform="translate(466.552734 0)"/>
      <use xlink:href="#DejaVuSans-56" transform="translate(498.339844 0)"/>
      <use xlink:href="#DejaVuSans-61" transform="translate(558.998047 0)"/>
      <use xlink:href="#DejaVuSans-6c" transform="translate(620.277344 0)"/>
      <use xlink:href="#DejaVuSans-75" transform="translate(648.060547 0)"/>
      <use xlink:href="#DejaVuSans-65" transform="translate(711.439453 0)"/>
      <use xlink:href="#DejaVuSans-20" transform="translate(772.962891 0)"/>
      <use xlink:href="#DejaVuSans-28" transform="translate(804.75 0)"/>
      <use xlink:href="#DejaVuSans-70" transform="translate(843.763672 0)"/>
      <use xlink:href="#DejaVuSans-6f" transform="translate(907.240234 0)"/>
      <use xlink:href="#DejaVuSans-69" transform="translate(968.421875 0)"/>
      <use xlink:href="#DejaVuSans-6e" transform="translate(996.205078 0)"/>
      <use xlink:href="#DejaVuSans-74" transform="translate(1059.583984 0)"/>
      <use xlink:href="#DejaVuSans-73" transform="translate(1098.792969 0)"/>
      <use xlink:href="#DejaVuSans-20" transform="translate(1150.892578 0)"/>
      <use xlink:href="#DejaVuSans-70" transform="translate(1182.679688 0)"/>
      <use xlink:href="#DejaVuSans-65" transform="translate(1246.15625 0)"/>
      <use xlink:href="#DejaVuSans-72" transform="translate(1307.679688 0)"/>
      <use xlink:href="#DejaVuSans-20" transform="translate(1348.792969 0)"/>
      <use xlink:href="#DejaVuSans-73" transform="translate(1380.580078 0)"/>
      <use xlink:href="#DejaVuSans-68" transform="translate(1432.679688 0)"/>
      <use xlink:href="#DejaVuSans-6f" transform="translate(1496.058594 0)"/>
      <use xlink:href="#DejaVuSans-74" transform="translate(1557.240234 0)"/>
      <use xlink:href="#DejaVuSans-29" transform="translate(1596.449219 0)"/>
     </g>
    </g>
   </g>
   <g id="LineCollection_1">
    <path d="M 84.790909 200.860884 
L 84.790909 48.361818 
" clip-path="url(#p716b32a72c)" style="fill: none; stroke: #ffa500; stroke-width: 1.5"/>
    <path d="M 104.476214 205.940915 
L 104.476214 61.738013 
" clip-path="url(#p716b32a72c)" style="fill: none; stroke: #ffa500; stroke-width: 1.5"/>
    <path d="M 124.161518 222.826422 
L 124.161518 108.959519 
" clip-path="url(#p716b32a72c)" style="fill: none; stroke: #ffa500; stroke-width: 1.5"/>
    <path d="M 143.846823 251.239599 
L 143.846823 179.70893 
" clip-path="url(#p716b32a72c)" style="fill: none; stroke: #ffa500; stroke-width: 1.5"/>
    <path d="M 163.532127 241.737389 
L 163.532127 190.292676 
" clip-path="url(#p716b32a72c)" style="fill: none; stroke: #ffa500; stroke-width: 1.5"/>
    <path d="M 183.217432 225.834749 
L 183.217432 200.084885 
" clip-path="url(#p716b32a72c)" style="fill: none; stroke: #ffa500; stroke-width: 1.5"/>
    <path d="M 202.902736 229.647905 
L 202.902736 195.592741 
" clip-path="url(#p716b32a72c)" style="fill: none; stroke: #ffa500; stroke-width: 1.5"/>
    <path d="M 222.588041 230.037601 
L 222.588041 190.590891 
" clip-path="url(#p716b32a72c)" style="fill: none; stroke: #ffa500; stroke-width: 1.5"/>
    <path d="M 242.273346 229.169384 
L 242.273346 185.007357 
" clip-path="url(#p716b32a72c)" style="fill: none; stroke: #ffa500; stroke-width: 1.5"/>
    <path d="M 261.95865 230.080182 
L 261.95865 174.317581 
" clip-path="url(#p716b32a72c)" style="fill: none; stroke: #ffa500; stroke-width: 1.5"/>
    <path d="M 281.643955 248.681417 
L 281.643955 192.825574 
" clip-path="url(#p716b32a72c)" style="fill: none; stroke: #ffa500; stroke-width: 1.5"/>
    <path d="M 301.329259 236.088607 
L 301.329259 186.331054 
" clip-path="url(#p716b32a72c)" style="fill: none; stroke: #ffa500; stroke-width: 1.5"/>
    <path d="M 321.014564 253.483403 
L 321.014564 169.590827 
" clip-path="url(#p716b32a72c)" style="fill: none; stroke: #ffa500; stroke-width: 1.5"/>
    <path d="M 340.699868 246.701191 
L 340.699868 152.660584 
" clip-path="url(#p716b32a72c)" style="fill: none; stroke: #ffa500; stroke-width: 1.5"/>
    <path d="M 360.385173 256.024974 
L 360.385173 149.421729 
" clip-path="url(#p716b32a72c)" style="fill: none; stroke: #ffa500; stroke-width: 1.5"/>
    <path d="M 380.070478 245.580859 
L 380.070478 138.290314 
" clip-path="url(#p716b32a72c)" style="fill: none; stroke: #ffa500; stroke-width: 1.5"/>
    <path d="M 399.755782 251.193664 
L 399.755782 148.868784 
" clip-path="url(#p716b32a72c)" style="fill: none; stroke: #ffa500; stroke-width: 1.5"/>
    <path d="M 419.441087 189.195338 
L 419.441087 133.840788 
" clip-path="url(#p716b32a72c)" style="fill: none; stroke: #ffa500; stroke-width: 1.5"/>
    <path d="M 439.126391 173.942598 
L 439.126391 142.311822 
" clip-path="url(#p716b32a72c)" style="fill: none; stroke: #ffa500; stroke-width: 1.5"/>
    <path d="M 458.811696 203.078572 
L 458.811696 145.88353 
" clip-path="url(#p716b32a72c)" style="fill: none; stroke: #ffa500; stroke-width: 1.5"/>
    <path d="M 478.497 218.836491 
L 478.497 141.883382 
" clip-path="url(#p716b32a72c)" style="fill: none; stroke: #ffa500; stroke-width: 1.5"/>
    <path d="M 498.182305 258.333418 
L 498.182305 117.092592 
" clip-path="url(#p716b32a72c)" style="fill: none; stroke: #ffa500; stroke-width: 1.5"/>
    <path d="M 517.86761 311.855515 
L 517.86761 193.544542 
" clip-path="url(#p716b32a72c)" style="fill: none; stroke: #ffa500; stroke-width: 1.5"/>
    <path clip-path="url(#p716b32a72c)" style="fill: none; stroke: #ffa500; stroke-width: 1.5"/>
   </g>
   <g id="LineCollection_2">
    <path d="M 85.447086 200.860884 
L 85.447086 48.361818 
" clip-path="url(#p716b32a72c)" style="fill: none; stroke: #0000ff; stroke-opacity: 0.3; stroke-width: 1.5"/>
    <path d="M 105.13239 205.940915 
L 105.13239 61.738013 
" clip-path="url(#p716b32a72c)" style="fill: none; stroke: #0000ff; stroke-opacity: 0.3; stroke-width: 1.5"/>
    <path d="M 124.817695 222.826422 
L 124.817695 108.959519 
" clip-path="url(#p716b32a72c)" style="fill: none; stroke: #0000ff; stroke-opacity: 0.3; stroke-width: 1.5"/>
    <path d="M 144.503 251.239599 
L 144.503 179.70893 
" clip-path="url(#p716b32a72c)" style="fill: none; stroke: #0000ff; stroke-opacity: 0.3; stroke-width: 1.5"/>
    <path d="M 164.188304 241.737389 
L 164.188304 190.292676 
" clip-path="url(#p716b32a72c)" style="fill: none; stroke: #0000ff; stroke-opacity: 0.3; stroke-width: 1.5"/>
    <path d="M 183.873609 225.834749 
L 183.873609 200.084885 
" clip-path="url(#p716b32a72c)" style="fill: none; stroke: #0000ff; stroke-opacity: 0.3; stroke-width: 1.5"/>
    <path d="M 203.558913 229.647905 
L 203.558913 195.592741 
" clip-path="url(#p716b32a72c)" style="fill: none; stroke: #0000ff; stroke-opacity: 0.3; stroke-width: 1.5"/>
    <path d="M 223.244218 230.037601 
L 223.244218 190.590891 
" clip-path="url(#p716b32a72c)" style="fill: none; stroke: #0000ff; stroke-opacity: 0.3; stroke-width: 1.5"/>
    <path d="M 242.929522 229.169384 
L 242.929522 185.007357 
" clip-path="url(#p716b32a72c)" style="fill: none; stroke: #0000ff; stroke-opacity: 0.3; stroke-width: 1.5"/>
    <path d="M 262.614827 230.080182 
L 262.614827 174.317581 
" clip-path="url(#p716b32a72c)" style="fill: none; stroke: #0000ff; stroke-opacity: 0.3; stroke-width: 1.5"/>
    <path d="M 282.300132 248.681417 
L 282.300132 192.825574 
" clip-path="url(#p716b32a72c)" style="fill: none; stroke: #0000ff; stroke-opacity: 0.3; stroke-width: 1.5"/>
    <path d="M 301.985436 236.088607 
L 301.985436 186.331054 
" clip-path="url(#p716b32a72c)" style="fill: none; stroke: #0000ff; stroke-opacity: 0.3; stroke-width: 1.5"/>
    <path d="M 321.670741 255.888131 
L 321.670741 187.551561 
" clip-path="url(#p716b32a72c)" style="fill: none; stroke: #0000ff; stroke-opacity: 0.3; stroke-width: 1.5"/>
    <path d="M 341.356045 253.170846 
L 341.356045 192.134214 
" clip-path="url(#p716b32a72c)" style="fill: none; stroke: #0000ff; stroke-opacity: 0.3; stroke-width: 1.5"/>
    <path d="M 361.04135 270.096671 
L 361.04135 190.221276 
" clip-path="url(#p716b32a72c)" style="fill: none; stroke: #0000ff; stroke-opacity: 0.3; stroke-width: 1.5"/>
    <path d="M 380.726654 261.756884 
L 380.726654 197.26851 
" clip-path="url(#p716b32a72c)" style="fill: none; stroke: #0000ff; stroke-opacity: 0.3; stroke-width: 1.5"/>
    <path d="M 400.411959 283.441736 
L 400.411959 216.417097 
" clip-path="url(#p716b32a72c)" style="fill: none; stroke: #0000ff; stroke-opacity: 0.3; stroke-width: 1.5"/>
    <path d="M 420.097264 259.273421 
L 420.097264 222.370388 
" clip-path="url(#p716b32a72c)" style="fill: none; stroke: #0000ff; stroke-opacity: 0.3; stroke-width: 1.5"/>
    <path d="M 439.782568 249.104928 
L 439.782568 228.017744 
" clip-path="url(#p716b32a72c)" style="fill: none; stroke: #0000ff; stroke-opacity: 0.3; stroke-width: 1.5"/>
    <path d="M 459.467873 268.528911 
L 459.467873 230.398882 
" clip-path="url(#p716b32a72c)" style="fill: none; stroke: #0000ff; stroke-opacity: 0.3; stroke-width: 1.5"/>
    <path d="M 479.153177 279.03419 
L 479.153177 227.732117 
" clip-path="url(#p716b32a72c)" style="fill: none; stroke: #0000ff; stroke-opacity: 0.3; stroke-width: 1.5"/>
    <path d="M 498.838482 305.365474 
L 498.838482 211.204924 
" clip-path="url(#p716b32a72c)" style="fill: none; stroke: #0000ff; stroke-opacity: 0.3; stroke-width: 1.5"/>
    <path d="M 518.523786 341.046872 
L 518.523786 262.172891 
" clip-path="url(#p716b32a72c)" style="fill: none; stroke: #0000ff; stroke-opacity: 0.3; stroke-width: 1.5"/>
    <path clip-path="url(#p716b32a72c)" style="fill: none; stroke: #0000ff; stroke-opacity: 0.3; stroke-width: 1.5"/>
   </g>
   <g id="line2d_16">
    <defs>
     <path id="m5656af66ce" d="M 0 3 
C 0.795609 3 1.55874 2.683901 2.12132 2.12132 
C 2.683901 1.55874 3 0.795609 3 0 
C 3 -0.795609 2.683901 -1.55874 2.12132 -2.12132 
C 1.55874 -2.683901 0.795609 -3 0 -3 
C -0.795609 -3 -1.55874 -2.683901 -2.12132 -2.12132 
C -2.683901 -1.55874 -3 -0.795609 -3 0 
C -3 0.795609 -2.683901 1.55874 -2.12132 2.12132 
C -1.55874 2.683901 -0.795609 3 0 3 
z
" style="stroke: #ffa500"/>
    </defs>
    <g clip-path="url(#p716b32a72c)">
     <use xlink:href="#m5656af66ce" x="84.790909" y="124.611351" style="fill: #ffa500; stroke: #ffa500"/>
     <use xlink:href="#m5656af66ce" x="104.476214" y="133.839464" style="fill: #ffa500; stroke: #ffa500"/>
     <use xlink:href="#m5656af66ce" x="124.161518" y="165.89297" style="fill: #ffa500; stroke: #ffa500"/>
     <use xlink:href="#m5656af66ce" x="143.846823" y="215.474264" style="fill: #ffa500; stroke: #ffa500"/>
     <use xlink:href="#m5656af66ce" x="163.532127" y="216.015033" style="fill: #ffa500; stroke: #ffa500"/>
     <use xlink:href="#m5656af66ce" x="183.217432" y="212.959817" style="fill: #ffa500; stroke: #ffa500"/>
     <use xlink:href="#m5656af66ce" x="202.902736" y="212.620323" style="fill: #ffa500; stroke: #ffa500"/>
     <use xlink:href="#m5656af66ce" x="222.588041" y="210.314246" style="fill: #ffa500; stroke: #ffa500"/>
     <use xlink:href="#m5656af66ce" x="242.273346" y="207.08837" style="fill: #ffa500; stroke: #ffa500"/>
     <use xlink:href="#m5656af66ce" x="261.95865" y="202.198881" style="fill: #ffa500; stroke: #ffa500"/>
     <use xlink:href="#m5656af66ce" x="281.643955" y="220.753495" style="fill: #ffa500; stroke: #ffa500"/>
     <use xlink:href="#m5656af66ce" x="301.329259" y="211.209831" style="fill: #ffa500; stroke: #ffa500"/>
     <use xlink:href="#m5656af66ce" x="321.014564" y="211.537115" style="fill: #ffa500; stroke: #ffa500"/>
     <use xlink:href="#m5656af66ce" x="340.699868" y="199.680888" style="fill: #ffa500; stroke: #ffa500"/>
     <use xlink:href="#m5656af66ce" x="360.385173" y="202.723351" style="fill: #ffa500; stroke: #ffa500"/>
     <use xlink:href="#m5656af66ce" x="380.070478" y="191.935587" style="fill: #ffa500; stroke: #ffa500"/>
     <use xlink:href="#m5656af66ce" x="399.755782" y="200.031224" style="fill: #ffa500; stroke: #ffa500"/>
     <use xlink:href="#m5656af66ce" x="419.441087" y="161.518063" style="fill: #ffa500; stroke: #ffa500"/>
     <use xlink:href="#m5656af66ce" x="439.126391" y="158.12721" style="fill: #ffa500; stroke: #ffa500"/>
     <use xlink:href="#m5656af66ce" x="458.811696" y="174.481051" style="fill: #ffa500; stroke: #ffa500"/>
     <use xlink:href="#m5656af66ce" x="478.497" y="180.359936" style="fill: #ffa500; stroke: #ffa500"/>
     <use xlink:href="#m5656af66ce" x="498.182305" y="187.713005" style="fill: #ffa500; stroke: #ffa500"/>
     <use xlink:href="#m5656af66ce" x="517.86761" y="252.700028" style="fill: #ffa500; stroke: #ffa500"/>
     <use xlink:href="#m5656af66ce" x="537.552914" y="344.482479" style="fill: #ffa500; stroke: #ffa500"/>
    </g>
   </g>
   <g id="line2d_17">
    <defs>
     <path id="m7418113fb6" d="M 0 3 
C 0.795609 3 1.55874 2.683901 2.12132 2.12132 
C 2.683901 1.55874 3 0.795609 3 0 
C 3 -0.795609 2.683901 -1.55874 2.12132 -2.12132 
C 1.55874 -2.683901 0.795609 -3 0 -3 
C -0.795609 -3 -1.55874 -2.683901 -2.12132 -2.12132 
C -2.683901 -1.55874 -3 -0.795609 -3 0 
C -3 0.795609 -2.683901 1.55874 -2.12132 2.12132 
C -1.55874 2.683901 -0.795609 3 0 3 
z
" style="stroke: #0000ff; stroke-opacity: 0.3"/>
    </defs>
    <g clip-path="url(#p716b32a72c)">
     <use xlink:href="#m7418113fb6" x="85.447086" y="124.611351" style="fill: #0000ff; fill-opacity: 0.3; stroke: #0000ff; stroke-opacity: 0.3"/>
     <use xlink:href="#m7418113fb6" x="105.13239" y="133.839464" style="fill: #0000ff; fill-opacity: 0.3; stroke: #0000ff; stroke-opacity: 0.3"/>
     <use xlink:href="#m7418113fb6" x="124.817695" y="165.89297" style="fill: #0000ff; fill-opacity: 0.3; stroke: #0000ff; stroke-opacity: 0.3"/>
     <use xlink:href="#m7418113fb6" x="144.503" y="215.474264" style="fill: #0000ff; fill-opacity: 0.3; stroke: #0000ff; stroke-opacity: 0.3"/>
     <use xlink:href="#m7418113fb6" x="164.188304" y="216.015033" style="fill: #0000ff; fill-opacity: 0.3; stroke: #0000ff; stroke-opacity: 0.3"/>
     <use xlink:href="#m7418113fb6" x="183.873609" y="212.959817" style="fill: #0000ff; fill-opacity: 0.3; stroke: #0000ff; stroke-opacity: 0.3"/>
     <use xlink:href="#m7418113fb6" x="203.558913" y="212.620323" style="fill: #0000ff; fill-opacity: 0.3; stroke: #0000ff; stroke-opacity: 0.3"/>
     <use xlink:href="#m7418113fb6" x="223.244218" y="210.314246" style="fill: #0000ff; fill-opacity: 0.3; stroke: #0000ff; stroke-opacity: 0.3"/>
     <use xlink:href="#m7418113fb6" x="242.929522" y="207.08837" style="fill: #0000ff; fill-opacity: 0.3; stroke: #0000ff; stroke-opacity: 0.3"/>
     <use xlink:href="#m7418113fb6" x="262.614827" y="202.198881" style="fill: #0000ff; fill-opacity: 0.3; stroke: #0000ff; stroke-opacity: 0.3"/>
     <use xlink:href="#m7418113fb6" x="282.300132" y="220.753495" style="fill: #0000ff; fill-opacity: 0.3; stroke: #0000ff; stroke-opacity: 0.3"/>
     <use xlink:href="#m7418113fb6" x="301.985436" y="211.209831" style="fill: #0000ff; fill-opacity: 0.3; stroke: #0000ff; stroke-opacity: 0.3"/>
     <use xlink:href="#m7418113fb6" x="321.670741" y="221.719846" style="fill: #0000ff; fill-opacity: 0.3; stroke: #0000ff; stroke-opacity: 0.3"/>
     <use xlink:href="#m7418113fb6" x="341.356045" y="222.65253" style="fill: #0000ff; fill-opacity: 0.3; stroke: #0000ff; stroke-opacity: 0.3"/>
     <use xlink:href="#m7418113fb6" x="361.04135" y="230.158973" style="fill: #0000ff; fill-opacity: 0.3; stroke: #0000ff; stroke-opacity: 0.3"/>
     <use xlink:href="#m7418113fb6" x="380.726654" y="229.512697" style="fill: #0000ff; fill-opacity: 0.3; stroke: #0000ff; stroke-opacity: 0.3"/>
     <use xlink:href="#m7418113fb6" x="400.411959" y="249.929417" style="fill: #0000ff; fill-opacity: 0.3; stroke: #0000ff; stroke-opacity: 0.3"/>
     <use xlink:href="#m7418113fb6" x="420.097264" y="240.821904" style="fill: #0000ff; fill-opacity: 0.3; stroke: #0000ff; stroke-opacity: 0.3"/>
     <use xlink:href="#m7418113fb6" x="439.782568" y="238.561336" style="fill: #0000ff; fill-opacity: 0.3; stroke: #0000ff; stroke-opacity: 0.3"/>
     <use xlink:href="#m7418113fb6" x="459.467873" y="249.463896" style="fill: #0000ff; fill-opacity: 0.3; stroke: #0000ff; stroke-opacity: 0.3"/>
     <use xlink:href="#m7418113fb6" x="479.153177" y="253.383154" style="fill: #0000ff; fill-opacity: 0.3; stroke: #0000ff; stroke-opacity: 0.3"/>
     <use xlink:href="#m7418113fb6" x="498.838482" y="258.285199" style="fill: #0000ff; fill-opacity: 0.3; stroke: #0000ff; stroke-opacity: 0.3"/>
     <use xlink:href="#m7418113fb6" x="518.523786" y="301.609882" style="fill: #0000ff; fill-opacity: 0.3; stroke: #0000ff; stroke-opacity: 0.3"/>
     <use xlink:href="#m7418113fb6" x="538.209091" y="362.798182" style="fill: #0000ff; fill-opacity: 0.3; stroke: #0000ff; stroke-opacity: 0.3"/>
    </g>
   </g>
   <g id="patch_3">
    <path d="M 62.12 378.52 
L 62.12 32.64 
" style="fill: none; stroke: #000000; stroke-width: 0.8; stroke-linejoin: miter; stroke-linecap: square"/>
   </g>
   <g id="patch_4">
    <path d="M 560.88 378.52 
L 560.88 32.64 
" style="fill: none; stroke: #000000; stroke-width: 0.8; stroke-linejoin: miter; stroke-linecap: square"/>
   </g>
   <g id="patch_5">
    <path d="M 62.12 378.52 
L 560.88 378.52 
" style="fill: none; stroke: #000000; stroke-width: 0.8; stroke-linejoin: miter; stroke-linecap: square"/>
   </g>
   <g id="patch_6">
    <path d="M 62.12 32.64 
L 560.88 32.64 
" style="fill: none; stroke: #000000; stroke-width: 0.8; stroke-linejoin: miter; stroke-linecap: square"/>
   </g>
   <g id="text_18">
    <!-- 2024 -->
    <g transform="translate(291.14 26.64) scale(0.16 -0.16)">
     <use xlink:href="#DejaVuSans-32"/>
     <use xlink:href="#DejaVuSans-30" transform="translate(63.623047 0)"/>
     <use xlink:href="#DejaVuSans-32" transform="translate(127.246094 0)"/>
     <use xlink:href="#DejaVuSans-34" transform="translate(190.869141 0)"/>
    </g>
   </g>
   <g id="legend_1">
    <g id="patch_7">
     <path d="M 372.8025 77.4675 
L 552.48 77.4675 
Q 554.88 77.4675 554.88 75.0675 
L 554.88 41.04 
Q 554.88 38.64 552.48 38.64 
L 372.8025 38.64 
Q 370.4025 38.64 370.4025 41.04 
L 370.4025 75.0675 
Q 370.4025 77.4675 372.8025 77.4675 
z
" style="fill: #ffffff; opacity: 0.8; stroke: #cccccc; stroke-linejoin: miter"/>
    </g>
    <g id="LineCollection_3">
     <path d="M 387.2025 54.358125 
L 387.2025 42.358125 
" style="fill: none; stroke: #ffa500; stroke-width: 1.5"/>
    </g>
    <g id="line2d_18"/>
    <g id="line2d_19">
     <g>
      <use xlink:href="#m5656af66ce" x="387.2025" y="48.358125" style="fill: #ffa500; stroke: #ffa500"/>
     </g>
    </g>
    <g id="text_19">
     <!-- Current point system -->
     <g transform="translate(408.8025 52.558125) scale(0.12 -0.12)">
      <defs>
       <path id="DejaVuSans-43" d="M 4122 4306 
L 4122 3641 
Q 3803 3938 3442 4084 
Q 3081 4231 2675 4231 
Q 1875 4231 1450 3742 
Q 1025 3253 1025 2328 
Q 1025 1406 1450 917 
Q 1875 428 2675 428 
Q 3081 428 3442 575 
Q 3803 722 4122 1019 
L 4122 359 
Q 3791 134 3420 21 
Q 3050 -91 2638 -91 
Q 1578 -91 968 557 
Q 359 1206 359 2328 
Q 359 3453 968 4101 
Q 1578 4750 2638 4750 
Q 3056 4750 3426 4639 
Q 3797 4528 4122 4306 
z
" transform="scale(0.015625)"/>
       <path id="DejaVuSans-79" d="M 2059 -325 
Q 1816 -950 1584 -1140 
Q 1353 -1331 966 -1331 
L 506 -1331 
L 506 -850 
L 844 -850 
Q 1081 -850 1212 -737 
Q 1344 -625 1503 -206 
L 1606 56 
L 191 3500 
L 800 3500 
L 1894 763 
L 2988 3500 
L 3597 3500 
L 2059 -325 
z
" transform="scale(0.015625)"/>
       <path id="DejaVuSans-6d" d="M 3328 2828 
Q 3544 3216 3844 3400 
Q 4144 3584 4550 3584 
Q 5097 3584 5394 3201 
Q 5691 2819 5691 2113 
L 5691 0 
L 5113 0 
L 5113 2094 
Q 5113 2597 4934 2840 
Q 4756 3084 4391 3084 
Q 3944 3084 3684 2787 
Q 3425 2491 3425 1978 
L 3425 0 
L 2847 0 
L 2847 2094 
Q 2847 2600 2669 2842 
Q 2491 3084 2119 3084 
Q 1678 3084 1418 2786 
Q 1159 2488 1159 1978 
L 1159 0 
L 581 0 
L 581 3500 
L 1159 3500 
L 1159 2956 
Q 1356 3278 1631 3431 
Q 1906 3584 2284 3584 
Q 2666 3584 2933 3390 
Q 3200 3197 3328 2828 
z
" transform="scale(0.015625)"/>
      </defs>
      <use xlink:href="#DejaVuSans-43"/>
      <use xlink:href="#DejaVuSans-75" transform="translate(69.824219 0)"/>
      <use xlink:href="#DejaVuSans-72" transform="translate(133.203125 0)"/>
      <use xlink:href="#DejaVuSans-72" transform="translate(172.566406 0)"/>
      <use xlink:href="#DejaVuSans-65" transform="translate(211.429688 0)"/>
      <use xlink:href="#DejaVuSans-6e" transform="translate(272.953125 0)"/>
      <use xlink:href="#DejaVuSans-74" transform="translate(336.332031 0)"/>
      <use xlink:href="#DejaVuSans-20" transform="translate(375.541016 0)"/>
      <use xlink:href="#DejaVuSans-70" transform="translate(407.328125 0)"/>
      <use xlink:href="#DejaVuSans-6f" transform="translate(470.804688 0)"/>
      <use xlink:href="#DejaVuSans-69" transform="translate(531.986328 0)"/>
      <use xlink:href="#DejaVuSans-6e" transform="translate(559.769531 0)"/>
      <use xlink:href="#DejaVuSans-74" transform="translate(623.148438 0)"/>
      <use xlink:href="#DejaVuSans-20" transform="translate(662.357422 0)"/>
      <use xlink:href="#DejaVuSans-73" transform="translate(694.144531 0)"/>
      <use xlink:href="#DejaVuSans-79" transform="translate(746.244141 0)"/>
      <use xlink:href="#DejaVuSans-73" transform="translate(805.423828 0)"/>
      <use xlink:href="#DejaVuSans-74" transform="translate(857.523438 0)"/>
      <use xlink:href="#DejaVuSans-65" transform="translate(896.732422 0)"/>
      <use xlink:href="#DejaVuSans-6d" transform="translate(958.255859 0)"/>
     </g>
    </g>
    <g id="LineCollection_4">
     <path d="M 387.2025 71.971875 
L 387.2025 59.971875 
" style="fill: none; stroke: #0000ff; stroke-opacity: 0.3; stroke-width: 1.5"/>
    </g>
    <g id="line2d_20"/>
    <g id="line2d_21">
     <g>
      <use xlink:href="#m7418113fb6" x="387.2025" y="65.971875" style="fill: #0000ff; fill-opacity: 0.3; stroke: #0000ff; stroke-opacity: 0.3"/>
     </g>
    </g>
    <g id="text_20">
     <!-- Uniform 2-point system -->
     <g transform="translate(408.8025 70.171875) scale(0.12 -0.12)">
      <defs>
       <path id="DejaVuSans-55" d="M 556 4666 
L 1191 4666 
L 1191 1831 
Q 1191 1081 1462 751 
Q 1734 422 2344 422 
Q 2950 422 3222 751 
Q 3494 1081 3494 1831 
L 3494 4666 
L 4128 4666 
L 4128 1753 
Q 4128 841 3676 375 
Q 3225 -91 2344 -91 
Q 1459 -91 1007 375 
Q 556 841 556 1753 
L 556 4666 
z
" transform="scale(0.015625)"/>
       <path id="DejaVuSans-2d" d="M 313 2009 
L 1997 2009 
L 1997 1497 
L 313 1497 
L 313 2009 
z
" transform="scale(0.015625)"/>
      </defs>
      <use xlink:href="#DejaVuSans-55"/>
      <use xlink:href="#DejaVuSans-6e" transform="translate(73.193359 0)"/>
      <use xlink:href="#DejaVuSans-69" transform="translate(136.572266 0)"/>
      <use xlink:href="#DejaVuSans-66" transform="translate(164.355469 0)"/>
      <use xlink:href="#DejaVuSans-6f" transform="translate(199.560547 0)"/>
      <use xlink:href="#DejaVuSans-72" transform="translate(260.742188 0)"/>
      <use xlink:href="#DejaVuSans-6d" transform="translate(300.105469 0)"/>
      <use xlink:href="#DejaVuSans-20" transform="translate(397.517578 0)"/>
      <use xlink:href="#DejaVuSans-32" transform="translate(429.304688 0)"/>
      <use xlink:href="#DejaVuSans-2d" transform="translate(492.927734 0)"/>
      <use xlink:href="#DejaVuSans-70" transform="translate(529.011719 0)"/>
      <use xlink:href="#DejaVuSans-6f" transform="translate(592.488281 0)"/>
      <use xlink:href="#DejaVuSans-69" transform="translate(653.669922 0)"/>
      <use xlink:href="#DejaVuSans-6e" transform="translate(681.453125 0)"/>
      <use xlink:href="#DejaVuSans-74" transform="translate(744.832031 0)"/>
      <use xlink:href="#DejaVuSans-20" transform="translate(784.041016 0)"/>
      <use xlink:href="#DejaVuSans-73" transform="translate(815.828125 0)"/>
      <use xlink:href="#DejaVuSans-79" transform="translate(867.927734 0)"/>
      <use xlink:href="#DejaVuSans-73" transform="translate(927.107422 0)"/>
      <use xlink:href="#DejaVuSans-74" transform="translate(979.207031 0)"/>
      <use xlink:href="#DejaVuSans-65" transform="translate(1018.416016 0)"/>
      <use xlink:href="#DejaVuSans-6d" transform="translate(1079.939453 0)"/>
     </g>
    </g>
   </g>
  </g>
 </g>
 <defs>
  <clipPath id="p716b32a72c">
   <rect x="62.12" y="32.64" width="498.76" height="345.88"/>
  </clipPath>
 </defs>
</svg>
